<?xml version="1.0" encoding="UTF-8" standalone="no"?>
<!-- Created with Inkscape (http://www.inkscape.org/) -->

<svg
   xmlns:dc="http://purl.org/dc/elements/1.1/"
   xmlns:cc="http://creativecommons.org/ns#"
   xmlns:rdf="http://www.w3.org/1999/02/22-rdf-syntax-ns#"
   xmlns:svg="http://www.w3.org/2000/svg"
   xmlns="http://www.w3.org/2000/svg"
   xmlns:sodipodi="http://sodipodi.sourceforge.net/DTD/sodipodi-0.dtd"
   xmlns:inkscape="http://www.inkscape.org/namespaces/inkscape"
   width="250"
   height="250"
   viewBox="0 0 250 250"
   id="svg5817"
   version="1.1"
   inkscape:version="0.91 r13725"
   sodipodi:docname="edit.svg">
  <defs
     id="defs5819" />
  <sodipodi:namedview
     id="base"
     pagecolor="#ffffff"
     bordercolor="#666666"
     borderopacity="1.0"
     inkscape:pageopacity="0.0"
     inkscape:pageshadow="2"
     inkscape:zoom="0.35"
     inkscape:cx="-66.428571"
     inkscape:cy="520"
     inkscape:document-units="px"
     inkscape:current-layer="layer1"
     showgrid="false"
     units="px"
     inkscape:window-width="1440"
     inkscape:window-height="840"
     inkscape:window-x="0"
     inkscape:window-y="29"
     inkscape:window-maximized="1" />
  <metadata
     id="metadata5822">
    <rdf:RDF>
      <cc:Work
         rdf:about="">
        <dc:format>image/svg+xml</dc:format>
        <dc:type
           rdf:resource="http://purl.org/dc/dcmitype/StillImage" />
        <dc:title></dc:title>
      </cc:Work>
    </rdf:RDF>
  </metadata>
  <g
     inkscape:label="Layer 1"
     inkscape:groupmode="layer"
     id="layer1"
     transform="translate(0,-802.36213)">
    <path
       d="m 161.02677,854.07988 43.65783,35.5852 -50.71098,-24.51542 7.05315,-11.06978 z"
       style="fill:#ffffff;fill-opacity:1;fill-rule:nonzero;stroke:none"
       id="path5152"
       inkscape:connector-curvature="0" />
    <path
       d="m 169.68091,865.01752 -32.90745,24.64668 23.46094,-33.76065 9.44651,9.11397 z"
       style="fill:#ffffff;fill-opacity:1;fill-rule:nonzero;stroke:none"
       id="path5160"
       inkscape:connector-curvature="0" />
    <path
       d="m 208.21164,893.95298 -26.35309,20.49004 16.41653,-29.06584 9.93656,8.5758 z"
       style="fill:#ffffff;fill-opacity:1;fill-rule:nonzero;stroke:none"
       id="path5168"
       inkscape:connector-curvature="0" />
    <path
       d="m 136.32367,890.83594 45.07984,29.67402 -48.34828,-23.98161 3.26844,-5.69241 z"
       style="fill:#ffffff;fill-opacity:1;fill-rule:nonzero;stroke:none"
       id="path5176"
       inkscape:connector-curvature="0" />
    <path
       d="m 136.58706,904.37213 -71.45917,79.35234 -0.612557,-2.27066 c 0.669437,0.36299 1.352001,0.63005 1.955807,1.18556 0.630059,0.45084 1.141982,1.14636 1.527018,1.82892 0.389411,0.71756 0.577554,1.46139 0.69569,2.20521 0.04375,0.72211 0.11376,1.4614 0.0046,2.131 -0.306278,2.739 -1.251367,5.1455 -2.222708,7.4994 -2.003937,4.6859 -4.401661,9.1096 -6.742505,13.5768 1.898927,-4.6597 3.872237,-9.3239 5.381753,-14.0756 0.735069,-2.3627 1.387005,-4.8042 1.413258,-7.1056 0.04375,-0.5821 -0.08751,-1.10717 -0.15314,-1.62767 -0.135638,-0.49459 -0.301903,-0.95384 -0.564428,-1.33012 -0.275651,-0.36334 -0.551301,-0.70882 -0.984467,-0.94089 -0.345657,-0.29402 -0.883832,-0.42424 -1.330124,-0.63426 l -1.706409,-0.79632 1.093852,-1.47889 63.53969,-85.82375 10.16408,8.30453 z"
       style="fill:#ffffff;fill-opacity:1;fill-rule:nonzero;stroke:none"
       id="path5180"
       inkscape:connector-curvature="0" />
    <path
       d="m 180.04146,928.3835 -70.56222,81.0764 -4.17852,4.7997 -0.29315,-6.1998 c -0.009,-0.224 -0.0657,-0.7134 -0.15751,-1.0634 -0.0744,-0.3938 -0.21002,-0.7438 -0.33253,-1.0939 -0.15752,-0.3115 -0.29316,-0.6475 -0.49443,-0.8793 -0.15313,-0.3114 -0.40253,-0.4158 -0.58192,-0.6608 -0.27128,-0.081 -0.43317,-0.3465 -0.76133,-0.3718 -0.28877,-0.07 -0.57317,-0.2065 -0.96259,-0.161 -0.35878,0 -0.71756,-0.063 -1.14635,0.067 -0.41129,0.1015 -0.818204,0.1015 -1.246994,0.2661 -0.853205,0.329 -1.732662,0.5687 -2.585867,1.0675 -0.866331,0.4288 -1.732662,0.8793 -2.559614,1.4569 -1.715161,1.0196 -3.294683,2.3277 -4.931086,3.5486 l -3.264056,2.4328 0.682565,-3.8767 c 0.533799,-3.0365 0.573178,-6.6856 -1.019471,-9.0046 -0.157515,-0.336 -0.48567,-0.4596 -0.713192,-0.7134 -0.223145,-0.266 -0.507547,-0.455 -0.857579,-0.5338 -0.328156,-0.1155 -0.643186,-0.2799 -0.984468,-0.385 l -1.137606,-0.056 c -0.75257,-0.1365 -1.557646,0.1086 -2.35397,0.2486 -0.809451,0.1015 -1.601399,0.3395 -2.380223,0.6825 -1.597023,0.5296 -3.132792,1.2647 -4.629182,2.1178 -1.54452,0.7525 -2.984029,1.7063 -4.423539,2.656 -2.962151,1.7981 -5.6224,4.0383 -8.435788,6.0772 2.647122,-2.2402 5.141106,-4.6859 7.985121,-6.716 1.378254,-1.0722 2.756508,-2.144 4.283526,-3.0324 1.457011,-0.9842 2.984029,-1.8681 4.646684,-2.564 0.791949,-0.4154 1.627652,-0.748 2.542112,-0.9405 0.896959,-0.2275 1.76329,-0.5558 2.765259,-0.49 l 1.465762,0 c 0.490045,0.098 0.988843,0.2765 1.483264,0.4242 0.520674,0.112 0.975716,0.3588 1.378253,0.7175 0.393788,0.3361 0.914461,0.6038 1.190112,1.0326 0.651936,0.8184 1.190111,1.689 1.496389,2.6253 0.389412,0.9147 0.538176,1.8552 0.713192,2.7873 0.288778,1.8902 0.275651,3.6754 0.07876,5.6093 l -2.581491,-1.4439 c 1.618901,-1.4089 3.163421,-2.8965 4.961713,-4.1654 0.844455,-0.6871 1.789543,-1.2821 2.760883,-1.8597 0.918836,-0.6255 2.030191,-1.0676 3.102165,-1.5531 0.5338,-0.2415 1.185737,-0.3546 1.780792,-0.5296 0.581934,-0.196 1.273244,-0.2311 1.960184,-0.259 0.66944,-0.084 1.40451,0.056 2.13082,0.21 0.73507,0.098 1.42202,0.5471 2.10895,0.8663 0.58631,0.4638 1.25575,0.9146 1.67578,1.4965 0.50317,0.5557 0.84445,1.155 1.18574,1.7588 0.28877,0.6084 0.56443,1.2251 0.74382,1.851 0.20127,0.6518 0.33253,1.1988 0.43754,2.0127 l -4.4673,-1.4001 64.26163,-86.15631 10.22096,8.23889 z"
       style="fill:#ffffff;fill-opacity:1;fill-rule:nonzero;stroke:none"
       id="path5184"
       inkscape:connector-curvature="0" />
    <path
       d="m 72.816358,1027.7116 -26.182447,10.3614 3.52658,-24.2181 c 4.134761,8.3962 6.265585,10.5973 22.655867,13.8567"
       style="fill:#ffffff;fill-opacity:1;fill-rule:nonzero;stroke:none"
       id="path5188"
       inkscape:connector-curvature="0" />
  </g>
</svg>
