<?xml version="1.0" encoding="UTF-8" standalone="no"?>
<!-- Created with Inkscape (http://www.inkscape.org/) -->

<svg
   xmlns:dc="http://purl.org/dc/elements/1.1/"
   xmlns:cc="http://creativecommons.org/ns#"
   xmlns:rdf="http://www.w3.org/1999/02/22-rdf-syntax-ns#"
   xmlns:svg="http://www.w3.org/2000/svg"
   xmlns="http://www.w3.org/2000/svg"
   xmlns:sodipodi="http://sodipodi.sourceforge.net/DTD/sodipodi-0.dtd"
   xmlns:inkscape="http://www.inkscape.org/namespaces/inkscape"
   width="250"
   height="250"
   viewBox="0 0 250 250"
   id="svg3531"
   version="1.1"
   inkscape:version="0.91 r13725"
   sodipodi:docname="Bumpy.svg">
  <defs
     id="defs3533">
    <clipPath
       clipPathUnits="userSpaceOnUse"
       id="clipPath3377">
      <path
         d="M 0,144 144,144 144,0 0,0 0,144 Z"
         id="path3379"
         inkscape:connector-curvature="0" />
    </clipPath>
  </defs>
  <sodipodi:namedview
     id="base"
     pagecolor="#ffffff"
     bordercolor="#666666"
     borderopacity="1.0"
     inkscape:pageopacity="0.0"
     inkscape:pageshadow="2"
     inkscape:zoom="0.35"
     inkscape:cx="90.714286"
     inkscape:cy="520"
     inkscape:document-units="px"
     inkscape:current-layer="layer1"
     showgrid="false"
     units="px"
     inkscape:window-width="1440"
     inkscape:window-height="840"
     inkscape:window-x="0"
     inkscape:window-y="29"
     inkscape:window-maximized="1" />
  <metadata
     id="metadata3536">
    <rdf:RDF>
      <cc:Work
         rdf:about="">
        <dc:format>image/svg+xml</dc:format>
        <dc:type
           rdf:resource="http://purl.org/dc/dcmitype/StillImage" />
        <dc:title></dc:title>
      </cc:Work>
    </rdf:RDF>
  </metadata>
  <g
     inkscape:label="Layer 1"
     inkscape:groupmode="layer"
     id="layer1"
     transform="translate(0,-802.36216)">
    <g
       transform="matrix(2.0408163,0,0,-2.0408163,-21.938775,1074.3009)"
       id="g3373">
      <g
         id="g3375"
         clip-path="url(#clipPath3377)">
        <g
           id="g3381"
           transform="translate(118,72)">
          <path
             d="m 0,0 c 0,-25.405 -20.595,-46 -46,-46 -25.405,0 -46,20.595 -46,46 0,25.405 20.595,46 46,46 C -20.595,46 0,25.405 0,0 Z"
             style="fill:none;stroke:#ffffff;stroke-width:6;stroke-linecap:butt;stroke-linejoin:miter;stroke-miterlimit:10;stroke-dasharray:none;stroke-opacity:1"
             id="path3383"
             inkscape:connector-curvature="0" />
        </g>
        <g
           id="g3385"
           transform="translate(75.5,118)">
          <path
             d="M 0,0 -3.5,-46 -7,0 0,0 Z"
             style="fill:#ffffff;fill-opacity:1;fill-rule:nonzero;stroke:none"
             id="path3387"
             inkscape:connector-curvature="0" />
        </g>
        <g
           id="g3389"
           transform="translate(118,68.5)">
          <path
             d="M 0,0 -46,3.5 0,7 0,0 Z"
             style="fill:#ffffff;fill-opacity:1;fill-rule:nonzero;stroke:none"
             id="path3391"
             inkscape:connector-curvature="0" />
        </g>
        <g
           id="g3393"
           transform="translate(68.5,26)">
          <path
             d="M 0,0 3.5,46 7,0 0,0 Z"
             style="fill:#ffffff;fill-opacity:1;fill-rule:nonzero;stroke:none"
             id="path3395"
             inkscape:connector-curvature="0" />
        </g>
        <g
           id="g3397"
           transform="translate(26,75.5)">
          <path
             d="M 0,0 46,-3.5 0,-7 0,0 Z"
             style="fill:#ffffff;fill-opacity:1;fill-rule:nonzero;stroke:none"
             id="path3399"
             inkscape:connector-curvature="0" />
        </g>
        <g
           id="g3401"
           transform="translate(43.9967,108.6534)">
          <path
             d="M 0,0 28.003,-36.653 -5.224,-4.66 0,0 Z"
             style="fill:#ffffff;fill-opacity:1;fill-rule:nonzero;stroke:none"
             id="path3403"
             inkscape:connector-curvature="0" />
        </g>
        <g
           id="g3405"
           transform="translate(108.3492,100.4052)">
          <path
             d="M 0,0 -36.349,-28.405 -4.716,5.173 0,0 Z"
             style="fill:#ffffff;fill-opacity:1;fill-rule:nonzero;stroke:none"
             id="path3407"
             inkscape:connector-curvature="0" />
        </g>
        <g
           id="g3409"
           transform="translate(101.9069,36.8092)">
          <path
             d="M 0,0 -29.907,34.191 4.898,5.001 0,0 Z"
             style="fill:#ffffff;fill-opacity:1;fill-rule:nonzero;stroke:none"
             id="path3411"
             inkscape:connector-curvature="0" />
        </g>
        <g
           id="g3413"
           transform="translate(37.1951,41.8102)">
          <path
             d="M 0,0 34.805,29.19 4.898,-5.001 0,0 Z"
             style="fill:#ffffff;fill-opacity:1;fill-rule:nonzero;stroke:none"
             id="path3415"
             inkscape:connector-curvature="0" />
        </g>
        <g
           id="g3417"
           transform="translate(57.2933,76.5029)">
          <path
             d="m 0,0 -2.466,-0.698 c -1.361,-0.385 -2.778,0.407 -3.163,1.768 -0.385,1.362 0.406,2.778 1.768,3.164 l 0,0 c 1.362,0.385 2.778,-0.407 3.163,-1.768 L 0,0 Z"
             style="fill:#ffffff;fill-opacity:1;fill-rule:nonzero;stroke:none"
             id="path3419"
             inkscape:connector-curvature="0" />
        </g>
        <g
           id="g3421"
           transform="translate(57.2933,76.5029)">
          <path
             d="m 0,0 -2.466,-0.698 c -1.361,-0.385 -2.778,0.407 -3.163,1.768 -0.385,1.362 0.406,2.778 1.768,3.164 l 0,0 c 1.362,0.385 2.778,-0.407 3.163,-1.768 L 0,0 Z"
             style="fill:none;stroke:#ffffff;stroke-width:1;stroke-linecap:butt;stroke-linejoin:miter;stroke-miterlimit:10;stroke-dasharray:none;stroke-opacity:1"
             id="path3423"
             inkscape:connector-curvature="0" />
        </g>
        <g
           id="g3425"
           transform="translate(78.9096,88.8521)">
          <path
             d="M 0,0 -1.529,2.057 C -2.373,3.192 -2.137,4.798 -1.001,5.642 0.135,6.486 1.74,6.25 2.584,5.114 3.429,3.978 3.192,2.373 2.057,1.529 L 0,0 Z"
             style="fill:#ffffff;fill-opacity:1;fill-rule:nonzero;stroke:none"
             id="path3427"
             inkscape:connector-curvature="0" />
        </g>
        <g
           id="g3429"
           transform="translate(78.9096,88.8521)">
          <path
             d="M 0,0 -1.529,2.057 C -2.373,3.192 -2.137,4.798 -1.001,5.642 0.135,6.486 1.74,6.25 2.584,5.114 3.429,3.978 3.192,2.373 2.057,1.529 L 0,0 Z"
             style="fill:none;stroke:#ffffff;stroke-width:1;stroke-linecap:butt;stroke-linejoin:miter;stroke-miterlimit:10;stroke-dasharray:none;stroke-opacity:1"
             id="path3431"
             inkscape:connector-curvature="0" />
        </g>
        <g
           id="g3433"
           transform="translate(65.3991,57.2502)">
          <path
             d="m 0,0 2.113,-1.45 c 1.167,-0.8 1.464,-2.395 0.664,-3.562 l 0,0 C 1.976,-6.179 0.381,-6.476 -0.786,-5.676 -1.953,-4.875 -2.25,-3.28 -1.45,-2.113 L 0,0 Z"
             style="fill:#ffffff;fill-opacity:1;fill-rule:nonzero;stroke:none"
             id="path3435"
             inkscape:connector-curvature="0" />
        </g>
        <g
           id="g3437"
           transform="translate(65.3991,57.2502)">
          <path
             d="m 0,0 2.113,-1.45 c 1.167,-0.8 1.464,-2.395 0.664,-3.562 l 0,0 C 1.976,-6.179 0.381,-6.476 -0.786,-5.676 -1.953,-4.875 -2.25,-3.28 -1.45,-2.113 L 0,0 Z"
             style="fill:none;stroke:#ffffff;stroke-width:1;stroke-linecap:butt;stroke-linejoin:miter;stroke-miterlimit:10;stroke-dasharray:none;stroke-opacity:1"
             id="path3439"
             inkscape:connector-curvature="0" />
        </g>
        <g
           id="g3441"
           transform="translate(96.684,82.461)">
          <path
             d="M 0,0 1.818,1.806 C 2.822,2.803 4.445,2.798 5.442,1.794 l 0,0 C 6.439,0.79 6.434,-0.833 5.43,-1.83 l 0,0 C 4.426,-2.828 2.803,-2.822 1.806,-1.818 L 0,0 Z"
             style="fill:#ffffff;fill-opacity:1;fill-rule:nonzero;stroke:none"
             id="path3443"
             inkscape:connector-curvature="0" />
        </g>
        <g
           id="g3445"
           transform="translate(96.684,82.461)">
          <path
             d="M 0,0 1.818,1.806 C 2.822,2.803 4.445,2.798 5.442,1.794 l 0,0 C 6.439,0.79 6.434,-0.833 5.43,-1.83 l 0,0 C 4.426,-2.828 2.803,-2.822 1.806,-1.818 L 0,0 Z"
             style="fill:none;stroke:#ffffff;stroke-width:1;stroke-linecap:butt;stroke-linejoin:miter;stroke-miterlimit:10;stroke-dasharray:none;stroke-opacity:1"
             id="path3447"
             inkscape:connector-curvature="0" />
        </g>
        <g
           id="g3449"
           transform="translate(80.3477,51.3614)">
          <path
             d="m 0,0 1.299,-2.209 c 0.717,-1.22 0.31,-2.79 -0.91,-3.508 l 0,0 c -1.22,-0.717 -2.791,-0.31 -3.508,0.91 l 0,0 c -0.717,1.22 -0.31,2.791 0.91,3.508 L 0,0 Z"
             style="fill:#ffffff;fill-opacity:1;fill-rule:nonzero;stroke:none"
             id="path3451"
             inkscape:connector-curvature="0" />
        </g>
        <g
           id="g3453"
           transform="translate(80.3477,51.3614)">
          <path
             d="m 0,0 1.299,-2.209 c 0.717,-1.22 0.31,-2.79 -0.91,-3.508 l 0,0 c -1.22,-0.717 -2.791,-0.31 -3.508,0.91 l 0,0 c -0.717,1.22 -0.31,2.791 0.91,3.508 L 0,0 Z"
             style="fill:none;stroke:#ffffff;stroke-width:1;stroke-linecap:butt;stroke-linejoin:miter;stroke-miterlimit:10;stroke-dasharray:none;stroke-opacity:1"
             id="path3455"
             inkscape:connector-curvature="0" />
        </g>
        <g
           id="g3457"
           transform="translate(87.4955,46.1919)">
          <path
             d="M 0,0 2.558,0.149 C 3.971,0.232 5.183,-0.847 5.266,-2.26 l 0,0 C 5.348,-3.672 4.27,-4.885 2.857,-4.967 l 0,0 C 1.444,-5.049 0.232,-3.971 0.149,-2.558 L 0,0 Z"
             style="fill:#ffffff;fill-opacity:1;fill-rule:nonzero;stroke:none"
             id="path3459"
             inkscape:connector-curvature="0" />
        </g>
        <g
           id="g3461"
           transform="translate(87.4955,46.1919)">
          <path
             d="M 0,0 2.558,0.149 C 3.971,0.232 5.183,-0.847 5.266,-2.26 l 0,0 C 5.348,-3.672 4.27,-4.885 2.857,-4.967 l 0,0 C 1.444,-5.049 0.232,-3.971 0.149,-2.558 L 0,0 Z"
             style="fill:none;stroke:#ffffff;stroke-width:1;stroke-linecap:butt;stroke-linejoin:miter;stroke-miterlimit:10;stroke-dasharray:none;stroke-opacity:1"
             id="path3463"
             inkscape:connector-curvature="0" />
        </g>
        <g
           id="g3465"
           transform="translate(49,87.1393)">
          <path
             d="m 0,0 -1.981,-1.625 c -1.095,-0.897 -2.709,-0.738 -3.607,0.356 l 0,10e-4 c -0.897,1.094 -0.738,2.708 0.357,3.606 l 0,0 c 1.094,0.897 2.709,0.738 3.606,-0.357 L 0,0 Z"
             style="fill:#ffffff;fill-opacity:1;fill-rule:nonzero;stroke:none"
             id="path3467"
             inkscape:connector-curvature="0" />
        </g>
        <g
           id="g3469"
           transform="translate(49,87.1393)">
          <path
             d="m 0,0 -1.981,-1.625 c -1.095,-0.897 -2.709,-0.738 -3.607,0.356 l 0,10e-4 c -0.897,1.094 -0.738,2.708 0.357,3.606 l 0,0 c 1.094,0.897 2.709,0.738 3.606,-0.357 L 0,0 Z"
             style="fill:none;stroke:#ffffff;stroke-width:1;stroke-linecap:butt;stroke-linejoin:miter;stroke-miterlimit:10;stroke-dasharray:none;stroke-opacity:1"
             id="path3471"
             inkscape:connector-curvature="0" />
        </g>
      </g>
    </g>
  </g>
</svg>
