<?xml version="1.0" encoding="UTF-8" standalone="no"?>
<svg
   xmlns:dc="http://purl.org/dc/elements/1.1/"
   xmlns:cc="http://creativecommons.org/ns#"
   xmlns:rdf="http://www.w3.org/1999/02/22-rdf-syntax-ns#"
   xmlns:svg="http://www.w3.org/2000/svg"
   xmlns="http://www.w3.org/2000/svg"
   viewBox="0 0 250 0"
   height="250"
   width="250"
   xml:space="preserve"
   version="1.1"
   id="svg7868"><metadata
     id="metadata7874"><rdf:RDF><cc:Work
         rdf:about=""><dc:format>image/svg+xml</dc:format><dc:type
           rdf:resource="http://purl.org/dc/dcmitype/StillImage" /><dc:title></dc:title></cc:Work></rdf:RDF></metadata><defs
     id="defs7872"><clipPath
       id="clipPath7882"
       clipPathUnits="userSpaceOnUse"><path
         id="path7884"
         d="M 0,144 144,144 144,0 0,0 0,144 Z" /></clipPath></defs><g
     id="layer1" /><g
     transform="matrix(1.25,0,0,-1.25,0,150)"
     id="g7876"><g
       transform="matrix(1.6326531,0,0,1.6326531,-17.55102,-100.75102)"
       id="g7878"><g
         clip-path="url(#clipPath7882)"
         id="g7880"><g
           transform="translate(118,72)"
           id="g7886"><path
             id="path7888"
             style="fill:none;stroke:#ffffff;stroke-width:6;stroke-linecap:butt;stroke-linejoin:miter;stroke-miterlimit:10;stroke-dasharray:none;stroke-opacity:1"
             d="m 0,0 c 0,-25.405 -20.595,-46 -46,-46 -25.405,0 -46,20.595 -46,46 0,25.405 20.595,46 46,46 C -20.595,46 0,25.405 0,0 Z" /></g><g
           transform="translate(75.5,118)"
           id="g7890"><path
             id="path7892"
             style="fill:#ffffff;fill-opacity:1;fill-rule:nonzero;stroke:none"
             d="M 0,0 -3.5,-46 -7,0 0,0 Z" /></g><g
           transform="translate(118,68.5)"
           id="g7894"><path
             id="path7896"
             style="fill:#ffffff;fill-opacity:1;fill-rule:nonzero;stroke:none"
             d="M 0,0 -46,3.5 0,7 0,0 Z" /></g><g
           transform="translate(68.5,26)"
           id="g7898"><path
             id="path7900"
             style="fill:#ffffff;fill-opacity:1;fill-rule:nonzero;stroke:none"
             d="M 0,0 3.5,46 7,0 0,0 Z" /></g><g
           transform="translate(26,75.5)"
           id="g7902"><path
             id="path7904"
             style="fill:#ffffff;fill-opacity:1;fill-rule:nonzero;stroke:none"
             d="M 0,0 46,-3.5 0,-7 0,0 Z" /></g><g
           transform="translate(43.9967,108.6534)"
           id="g7906"><path
             id="path7908"
             style="fill:#ffffff;fill-opacity:1;fill-rule:nonzero;stroke:none"
             d="M 0,0 28.003,-36.653 -5.224,-4.66 0,0 Z" /></g><g
           transform="translate(108.3492,100.4052)"
           id="g7910"><path
             id="path7912"
             style="fill:#ffffff;fill-opacity:1;fill-rule:nonzero;stroke:none"
             d="M 0,0 -36.349,-28.405 -4.716,5.173 0,0 Z" /></g><g
           transform="translate(101.9069,36.8092)"
           id="g7914"><path
             id="path7916"
             style="fill:#ffffff;fill-opacity:1;fill-rule:nonzero;stroke:none"
             d="M 0,0 -29.907,34.191 4.898,5.001 0,0 Z" /></g><g
           transform="translate(37.1951,41.8102)"
           id="g7918"><path
             id="path7920"
             style="fill:#ffffff;fill-opacity:1;fill-rule:nonzero;stroke:none"
             d="M 0,0 34.805,29.19 4.898,-5.001 0,0 Z" /></g><g
           transform="translate(57.2933,76.5029)"
           id="g7922"><path
             id="path7924"
             style="fill:#ffffff;fill-opacity:1;fill-rule:nonzero;stroke:none"
             d="m 0,0 -2.466,-0.698 c -1.361,-0.385 -2.778,0.407 -3.163,1.768 -0.385,1.362 0.406,2.778 1.768,3.164 l 0,0 c 1.362,0.385 2.778,-0.407 3.163,-1.768 L 0,0 Z" /></g><g
           transform="translate(57.2933,76.5029)"
           id="g7926"><path
             id="path7928"
             style="fill:none;stroke:#ffffff;stroke-width:1;stroke-linecap:butt;stroke-linejoin:miter;stroke-miterlimit:10;stroke-dasharray:none;stroke-opacity:1"
             d="m 0,0 -2.466,-0.698 c -1.361,-0.385 -2.778,0.407 -3.163,1.768 -0.385,1.362 0.406,2.778 1.768,3.164 l 0,0 c 1.362,0.385 2.778,-0.407 3.163,-1.768 L 0,0 Z" /></g><g
           transform="translate(78.9096,88.8521)"
           id="g7930"><path
             id="path7932"
             style="fill:#ffffff;fill-opacity:1;fill-rule:nonzero;stroke:none"
             d="M 0,0 -1.529,2.057 C -2.373,3.192 -2.137,4.798 -1.001,5.642 0.135,6.486 1.74,6.25 2.584,5.114 3.429,3.978 3.192,2.373 2.057,1.529 L 0,0 Z" /></g><g
           transform="translate(78.9096,88.8521)"
           id="g7934"><path
             id="path7936"
             style="fill:none;stroke:#ffffff;stroke-width:1;stroke-linecap:butt;stroke-linejoin:miter;stroke-miterlimit:10;stroke-dasharray:none;stroke-opacity:1"
             d="M 0,0 -1.529,2.057 C -2.373,3.192 -2.137,4.798 -1.001,5.642 0.135,6.486 1.74,6.25 2.584,5.114 3.429,3.978 3.192,2.373 2.057,1.529 L 0,0 Z" /></g><g
           transform="translate(65.3991,57.2502)"
           id="g7938"><path
             id="path7940"
             style="fill:#ffffff;fill-opacity:1;fill-rule:nonzero;stroke:none"
             d="m 0,0 2.113,-1.45 c 1.167,-0.8 1.464,-2.395 0.664,-3.562 l 0,0 C 1.976,-6.179 0.381,-6.476 -0.786,-5.676 -1.953,-4.875 -2.25,-3.28 -1.45,-2.113 L 0,0 Z" /></g><g
           transform="translate(65.3991,57.2502)"
           id="g7942"><path
             id="path7944"
             style="fill:none;stroke:#ffffff;stroke-width:1;stroke-linecap:butt;stroke-linejoin:miter;stroke-miterlimit:10;stroke-dasharray:none;stroke-opacity:1"
             d="m 0,0 2.113,-1.45 c 1.167,-0.8 1.464,-2.395 0.664,-3.562 l 0,0 C 1.976,-6.179 0.381,-6.476 -0.786,-5.676 -1.953,-4.875 -2.25,-3.28 -1.45,-2.113 L 0,0 Z" /></g><g
           transform="translate(96.684,82.461)"
           id="g7946"><path
             id="path7948"
             style="fill:#ffffff;fill-opacity:1;fill-rule:nonzero;stroke:none"
             d="M 0,0 1.818,1.806 C 2.822,2.803 4.445,2.798 5.442,1.794 l 0,0 C 6.439,0.79 6.434,-0.833 5.43,-1.83 l 0,0 C 4.426,-2.828 2.803,-2.822 1.806,-1.818 L 0,0 Z" /></g><g
           transform="translate(96.684,82.461)"
           id="g7950"><path
             id="path7952"
             style="fill:none;stroke:#ffffff;stroke-width:1;stroke-linecap:butt;stroke-linejoin:miter;stroke-miterlimit:10;stroke-dasharray:none;stroke-opacity:1"
             d="M 0,0 1.818,1.806 C 2.822,2.803 4.445,2.798 5.442,1.794 l 0,0 C 6.439,0.79 6.434,-0.833 5.43,-1.83 l 0,0 C 4.426,-2.828 2.803,-2.822 1.806,-1.818 L 0,0 Z" /></g><g
           transform="translate(80.3477,51.3614)"
           id="g7954"><path
             id="path7956"
             style="fill:#ffffff;fill-opacity:1;fill-rule:nonzero;stroke:none"
             d="m 0,0 1.299,-2.209 c 0.717,-1.22 0.31,-2.79 -0.91,-3.508 l 0,0 c -1.22,-0.717 -2.791,-0.31 -3.508,0.91 l 0,0 c -0.717,1.22 -0.31,2.791 0.91,3.508 L 0,0 Z" /></g><g
           transform="translate(80.3477,51.3614)"
           id="g7958"><path
             id="path7960"
             style="fill:none;stroke:#ffffff;stroke-width:1;stroke-linecap:butt;stroke-linejoin:miter;stroke-miterlimit:10;stroke-dasharray:none;stroke-opacity:1"
             d="m 0,0 1.299,-2.209 c 0.717,-1.22 0.31,-2.79 -0.91,-3.508 l 0,0 c -1.22,-0.717 -2.791,-0.31 -3.508,0.91 l 0,0 c -0.717,1.22 -0.31,2.791 0.91,3.508 L 0,0 Z" /></g><g
           transform="translate(87.4955,46.1919)"
           id="g7962"><path
             id="path7964"
             style="fill:#ffffff;fill-opacity:1;fill-rule:nonzero;stroke:none"
             d="M 0,0 2.558,0.149 C 3.971,0.232 5.183,-0.847 5.266,-2.26 l 0,0 C 5.348,-3.672 4.27,-4.885 2.857,-4.967 l 0,0 C 1.444,-5.049 0.232,-3.971 0.149,-2.558 L 0,0 Z" /></g><g
           transform="translate(87.4955,46.1919)"
           id="g7966"><path
             id="path7968"
             style="fill:none;stroke:#ffffff;stroke-width:1;stroke-linecap:butt;stroke-linejoin:miter;stroke-miterlimit:10;stroke-dasharray:none;stroke-opacity:1"
             d="M 0,0 2.558,0.149 C 3.971,0.232 5.183,-0.847 5.266,-2.26 l 0,0 C 5.348,-3.672 4.27,-4.885 2.857,-4.967 l 0,0 C 1.444,-5.049 0.232,-3.971 0.149,-2.558 L 0,0 Z" /></g><g
           transform="translate(49,87.1393)"
           id="g7970"><path
             id="path7972"
             style="fill:#ffffff;fill-opacity:1;fill-rule:nonzero;stroke:none"
             d="m 0,0 -1.981,-1.625 c -1.095,-0.897 -2.709,-0.738 -3.607,0.356 l 0,10e-4 c -0.897,1.094 -0.738,2.708 0.357,3.606 l 0,0 c 1.094,0.897 2.709,0.738 3.606,-0.357 L 0,0 Z" /></g><g
           transform="translate(49,87.1393)"
           id="g7974"><path
             id="path7976"
             style="fill:none;stroke:#ffffff;stroke-width:1;stroke-linecap:butt;stroke-linejoin:miter;stroke-miterlimit:10;stroke-dasharray:none;stroke-opacity:1"
             d="m 0,0 -1.981,-1.625 c -1.095,-0.897 -2.709,-0.738 -3.607,0.356 l 0,10e-4 c -0.897,1.094 -0.738,2.708 0.357,3.606 l 0,0 c 1.094,0.897 2.709,0.738 3.606,-0.357 L 0,0 Z" /></g></g></g></g></svg>