<?xml version="1.0" encoding="UTF-8" standalone="no"?>
<svg
   xmlns:dc="http://purl.org/dc/elements/1.1/"
   xmlns:cc="http://creativecommons.org/ns#"
   xmlns:rdf="http://www.w3.org/1999/02/22-rdf-syntax-ns#"
   xmlns:svg="http://www.w3.org/2000/svg"
   xmlns="http://www.w3.org/2000/svg"
   xmlns:sodipodi="http://sodipodi.sourceforge.net/DTD/sodipodi-0.dtd"
   xmlns:inkscape="http://www.inkscape.org/namespaces/inkscape"
   version="1.1"
   id="svg4737"
   viewBox="0 0 250 250"
   height="250"
   width="250"
   inkscape:version="0.91 r13725"
   sodipodi:docname="check.svg">
  <sodipodi:namedview
     pagecolor="#ffffff"
     bordercolor="#666666"
     borderopacity="1"
     objecttolerance="10"
     gridtolerance="10"
     guidetolerance="10"
     inkscape:pageopacity="0"
     inkscape:pageshadow="2"
     inkscape:window-width="1440"
     inkscape:window-height="840"
     id="namedview4603"
     showgrid="false"
     inkscape:zoom="1.24"
     inkscape:cx="169.45436"
     inkscape:cy="124.57557"
     inkscape:window-x="0"
     inkscape:window-y="29"
     inkscape:window-maximized="1"
     inkscape:current-layer="layer1" />
  <defs
     id="defs4739" />
  <metadata
     id="metadata4742">
    <rdf:RDF>
      <cc:Work
         rdf:about="">
        <dc:format>image/svg+xml</dc:format>
        <dc:type
           rdf:resource="http://purl.org/dc/dcmitype/StillImage" />
        <dc:title></dc:title>
      </cc:Work>
    </rdf:RDF>
  </metadata>
  <g
     transform="translate(0,-802.36216)"
     id="layer1">
    <path
       inkscape:connector-curvature="0"
       id="path4446"
       style="fill:#ffffff;fill-opacity:1;fill-rule:nonzero;stroke:none"
       d="m 133.40953,1048.5445 c 0,0 -0.65992,-1.8147 -1.81477,-4.9927 -0.28655,-0.7931 -0.60782,-1.673 -0.95515,-2.6311 -0.32996,-0.7872 -0.68597,-1.6382 -1.06803,-2.5498 -0.78437,-1.7887 -1.49929,-3.8583 -2.76992,-6.1245 -0.58756,-1.1434 -1.19827,-2.3359 -1.83214,-3.5689 -0.6715,-1.2069 -1.45588,-2.3792 -2.2171,-3.6411 -1.45587,-2.5962 -3.40958,-4.958 -5.29382,-7.615 -2.11869,-2.3938 -4.21422,-5.0652 -6.75839,-7.3548 -2.39365,-2.4861 -5.18962,-4.6078 -7.97981,-6.8219 l -4.40525,-3.0449 c -1.4935,-0.98709 -3.07962,-1.81767 -4.61653,-2.7353 -1.52534,-0.94936 -3.13462,-1.70769 -4.73232,-2.46879 -1.60638,-0.72939 -3.14619,-1.62086 -4.77862,-2.19973 -3.21566,-1.30247 -6.36764,-2.56442 -9.46753,-3.47048 -3.05936,-1.07092 -6.04926,-1.77136 -8.81339,-2.47759 -2.75835,-0.77848 -5.35171,-1.14317 -7.638273,-1.63243 -2.289456,-0.48904 -4.309735,-0.76991 -5.976899,-0.99567 -3.343011,-0.47746 -5.253303,-0.74953 -5.253303,-0.74953 l 5.29093,-0.49506 c 1.690319,-0.16671 3.748225,-0.36747 6.118724,-0.42535 2.364711,-0.0579 5.062271,-0.30982 7.997181,-0.19451 2.93779,0.0463 6.15056,0.0347 9.53988,0.37627 3.41247,0.17367 6.98414,0.68887 10.71789,1.25616 1.88425,0.21072 3.73086,0.74676 5.65273,1.12302 1.91608,0.408 3.8669,0.82201 5.78008,1.4472 1.92187,0.59624 3.90742,1.11144 5.84086,1.80887 1.93056,0.74397 3.8669,1.4935 5.80324,2.24326 3.77427,1.72783 7.64696,3.46168 11.17231,5.68156 3.67876,2.02329 6.94363,4.5326 10.22875,6.877 3.03621,2.5848 6.16214,5.0103 8.69183,7.6847 1.30247,1.3083 2.6281,2.5557 3.80901,3.835 1.14038,1.314 2.24025,2.5818 3.2967,3.8004 2.16499,2.3618 3.94214,4.958 5.58326,7.1635 0.79595,1.1086 1.5427,2.1476 2.23446,3.1058 0.56151,0.8509 1.07671,1.6324 1.53981,2.3356 1.86109,2.8222 2.92622,4.4342 2.92622,4.4342 l -25.85262,13.0161 z" />
    <path
       inkscape:connector-curvature="0"
       id="path4450"
       style="fill:#ffffff;fill-opacity:1;fill-rule:nonzero;stroke:none"
       d="m 130.16493,1032.781 c 0,0 0.54125,-2.7381 1.4935,-7.5339 0.23734,-1.1983 0.50073,-2.5239 0.78438,-3.9683 0.26339,-1.4211 0.85095,-3.288 1.31405,-5.0911 1.04777,-3.6268 2.05791,-7.9742 3.52536,-12.1421 1.50508,-4.13593 3.00437,-8.67154 4.83651,-13.31112 1.95371,-4.57891 3.8611,-9.46463 6.11004,-14.35034 2.33577,-4.83941 4.53839,-9.93352 7.14912,-14.8887 2.58469,-4.97255 5.09411,-10.06388 7.90167,-14.98132 2.71493,-4.96676 5.47617,-9.89022 8.33003,-14.65137 2.76703,-4.80768 5.64404,-9.44147 8.41396,-13.92498 2.72651,-4.50366 5.5659,-8.73803 8.1448,-12.80475 2.66572,-4.01161 5.18962,-7.80024 7.5196,-11.29966 9.44726,-13.89883 16.18249,-22.80472 16.18249,-22.80472 0,0 -5.21278,9.8872 -12.24903,25.03339 -1.71926,3.80044 -3.58324,7.91903 -5.55431,12.27218 -1.87267,4.39946 -3.96241,8.97258 -5.90165,13.80041 -1.98554,4.80769 -4.04056,9.76287 -5.96243,14.85976 -2.0058,5.05938 -3.89294,10.24912 -5.71929,15.44442 -1.92477,5.1608 -3.52247,10.41978 -5.207,15.54005 -1.71347,5.11426 -2.987,10.24033 -4.43708,15.12303 -1.35458,4.9061 -2.35893,9.6846 -3.47326,14.16812 -0.97252,4.5007 -1.63243,8.7554 -2.38208,12.6542 -0.42837,1.9914 -0.50652,3.7048 -0.71202,5.3952 -0.18825,1.6671 -0.3618,3.2502 -0.52678,4.7352 -0.14471,1.531 -0.39074,2.7408 -0.42547,4.2431 -0.0493,1.4704 -0.0954,2.8219 -0.13592,4.0434 -0.16208,4.8799 -0.2547,7.6701 -0.2547,7.6701 l -28.76437,-3.2302 z" />
  </g>
</svg>
