<?xml version="1.0" encoding="UTF-8" standalone="no"?>
<!-- Created with Inkscape (http://www.inkscape.org/) -->

<svg
   xmlns:dc="http://purl.org/dc/elements/1.1/"
   xmlns:cc="http://creativecommons.org/ns#"
   xmlns:rdf="http://www.w3.org/1999/02/22-rdf-syntax-ns#"
   xmlns:svg="http://www.w3.org/2000/svg"
   xmlns="http://www.w3.org/2000/svg"
   xmlns:sodipodi="http://sodipodi.sourceforge.net/DTD/sodipodi-0.dtd"
   xmlns:inkscape="http://www.inkscape.org/namespaces/inkscape"
   width="250"
   height="250"
   viewBox="0 0 250 250"
   id="svg2"
   version="1.1"
   inkscape:version="0.91 r13725"
   sodipodi:docname="checked.svg">
  <defs
     id="defs4" />
  <sodipodi:namedview
     id="base"
     pagecolor="#ffffff"
     bordercolor="#666666"
     borderopacity="1.0"
     inkscape:pageopacity="0.0"
     inkscape:pageshadow="2"
     inkscape:zoom="0.35"
     inkscape:cx="90.714286"
     inkscape:cy="520"
     inkscape:document-units="px"
     inkscape:current-layer="layer1"
     showgrid="false"
     units="px"
     inkscape:window-width="1440"
     inkscape:window-height="840"
     inkscape:window-x="0"
     inkscape:window-y="29"
     inkscape:window-maximized="1" />
  <metadata
     id="metadata7">
    <rdf:RDF>
      <cc:Work
         rdf:about="">
        <dc:format>image/svg+xml</dc:format>
        <dc:type
           rdf:resource="http://purl.org/dc/dcmitype/StillImage" />
        <dc:title></dc:title>
      </cc:Work>
    </rdf:RDF>
  </metadata>
  <g
     inkscape:label="Layer 1"
     inkscape:groupmode="layer"
     id="layer1"
     transform="translate(0,-802.36222)">
    <g
       id="g4257"
       transform="matrix(2.7710522,0,0,-2.7710522,126.24064,997.16203)">
      <path
         d="m 0,0 c 0,0 -0.228,0.627 -0.627,1.725 -0.099,0.274 -0.21,0.578 -0.33,0.909 -0.114,0.272 -0.237,0.566 -0.369,0.881 -0.271,0.618 -0.518,1.333 -0.957,2.116 -0.203,0.395 -0.414,0.807 -0.633,1.233 -0.232,0.417 -0.503,0.822 -0.766,1.258 -0.503,0.897 -1.178,1.713 -1.829,2.631 -0.732,0.827 -1.456,1.75 -2.335,2.541 -0.827,0.859 -1.793,1.592 -2.757,2.357 l -1.522,1.052 c -0.516,0.341 -1.064,0.628 -1.595,0.945 -0.527,0.328 -1.083,0.59 -1.635,0.853 -0.555,0.252 -1.087,0.56 -1.651,0.76 -1.111,0.45 -2.2,0.886 -3.271,1.199 -1.057,0.37 -2.09,0.612 -3.045,0.856 -0.953,0.269 -1.849,0.395 -2.639,0.564 -0.791,0.169 -1.489,0.266 -2.065,0.344 -1.155,0.165 -1.815,0.259 -1.815,0.259 l 1.828,0.171 c 0.584,0.058 1.295,0.127 2.114,0.147 0.817,0.02 1.749,0.107 2.763,0.067 1.015,-0.016 2.125,-0.012 3.296,-0.13 1.179,-0.06 2.413,-0.238 3.703,-0.434 0.651,-0.073 1.289,-0.258 1.953,-0.388 0.662,-0.141 1.336,-0.284 1.997,-0.5 0.664,-0.206 1.35,-0.384 2.018,-0.625 0.667,-0.257 1.336,-0.516 2.005,-0.775 1.304,-0.597 2.642,-1.196 3.86,-1.963 1.271,-0.699 2.399,-1.566 3.534,-2.376 C 0.279,14.784 1.359,13.946 2.233,13.022 2.683,12.57 3.141,12.139 3.549,11.697 3.943,11.243 4.323,10.805 4.688,10.384 5.436,9.568 6.05,8.671 6.617,7.909 6.892,7.526 7.15,7.167 7.389,6.836 7.583,6.542 7.761,6.272 7.921,6.029 8.564,5.054 8.932,4.497 8.932,4.497 L 0,0 Z"
         style="fill:#ffffff;fill-opacity:1;fill-rule:nonzero;stroke:none"
         id="path4259"
         inkscape:connector-curvature="0" />
    </g>
    <g
       id="g4261"
       transform="matrix(2.7710522,0,0,-2.7710522,123.13457,982.07022)">
      <path
         d="m 0,0 c 0,0 0.187,0.946 0.516,2.603 0.082,0.414 0.173,0.872 0.271,1.371 0.091,0.491 0.294,1.136 0.454,1.759 0.362,1.253 0.711,2.755 1.218,4.195 0.52,1.429 1.038,2.996 1.671,4.599 0.675,1.582 1.334,3.27 2.111,4.958 0.807,1.672 1.568,3.432 2.47,5.144 0.893,1.718 1.76,3.477 2.73,5.176 0.938,1.716 1.892,3.417 2.878,5.062 0.956,1.661 1.95,3.262 2.907,4.811 0.942,1.556 1.923,3.019 2.814,4.424 0.921,1.386 1.793,2.695 2.598,3.904 3.264,4.802 5.591,7.879 5.591,7.879 0,0 -1.801,-3.416 -4.232,-8.649 -0.594,-1.313 -1.238,-2.736 -1.919,-4.24 -0.647,-1.52 -1.369,-3.1 -2.039,-4.768 -0.686,-1.661 -1.396,-3.373 -2.06,-5.134 -0.693,-1.748 -1.345,-3.541 -1.976,-5.336 -0.665,-1.783 -1.217,-3.6 -1.799,-5.369 -0.592,-1.767 -1.032,-3.538 -1.533,-5.225 -0.468,-1.695 -0.815,-3.346 -1.2,-4.895 C 11.135,10.714 10.907,9.244 10.648,7.897 10.5,7.209 10.473,6.617 10.402,6.033 10.337,5.457 10.277,4.91 10.22,4.397 10.17,3.868 10.085,3.45 10.073,2.931 10.056,2.423 10.04,1.956 10.026,1.534 9.97,-0.152 9.938,-1.116 9.938,-1.116 L 0,0 Z"
         style="fill:#ffffff;fill-opacity:1;fill-rule:nonzero;stroke:none"
         id="path4263"
         inkscape:connector-curvature="0" />
    </g>
    <g
       id="g4265"
       transform="matrix(2.7710522,0,0,-2.7710522,49.922813,918.67475)">
      <path
         d="M 0,0 29.827,0.543"
         style="fill:none;stroke:#ffffff;stroke-width:3;stroke-linecap:butt;stroke-linejoin:miter;stroke-miterlimit:10;stroke-dasharray:none;stroke-opacity:1"
         id="path4267"
         inkscape:connector-curvature="0" />
    </g>
    <g
       id="g4269"
       transform="matrix(2.7710522,0,0,-2.7710522,174.44892,920.67922)">
      <path
         d="M 0,0 0,-35.735"
         style="fill:none;stroke:#ffffff;stroke-width:3;stroke-linecap:butt;stroke-linejoin:miter;stroke-miterlimit:10;stroke-dasharray:none;stroke-opacity:1"
         id="path4271"
         inkscape:connector-curvature="0" />
    </g>
    <g
       id="g4273"
       transform="matrix(2.7710522,0,0,-2.7710522,174.44892,1015.6436)">
      <path
         d="M 0,0 -43.356,0"
         style="fill:none;stroke:#ffffff;stroke-width:3;stroke-linecap:butt;stroke-linejoin:miter;stroke-miterlimit:10;stroke-dasharray:none;stroke-opacity:1"
         id="path4275"
         inkscape:connector-curvature="0" />
    </g>
    <g
       id="g4277"
       transform="matrix(2.7710522,0,0,-2.7710522,52.55365,951.74936)">
      <path
         d="M 0,0 0.633,-24.468"
         style="fill:none;stroke:#ffffff;stroke-width:3;stroke-linecap:butt;stroke-linejoin:miter;stroke-miterlimit:10;stroke-dasharray:none;stroke-opacity:1"
         id="path4279"
         inkscape:connector-curvature="0" />
    </g>
  </g>
</svg>
