<?xml version="1.0" encoding="UTF-8" standalone="no"?>
<svg
   xmlns:dc="http://purl.org/dc/elements/1.1/"
   xmlns:cc="http://creativecommons.org/ns#"
   xmlns:rdf="http://www.w3.org/1999/02/22-rdf-syntax-ns#"
   xmlns:svg="http://www.w3.org/2000/svg"
   xmlns="http://www.w3.org/2000/svg"
   version="1.1"
   id="svg4737"
   viewBox="0 0 250 250"
   height="250"
   width="250">
  <defs
     id="defs4739" />
  <metadata
     id="metadata4742">
    <rdf:RDF>
      <cc:Work
         rdf:about="">
        <dc:format>image/svg+xml</dc:format>
        <dc:type
           rdf:resource="http://purl.org/dc/dcmitype/StillImage" />
        <dc:title></dc:title>
      </cc:Work>
    </rdf:RDF>
  </metadata>
  <g
     transform="translate(0,-802.36216)"
     id="layer1">
    <path
       id="path4578"
       style="fill:#ffffff;fill-opacity:1;fill-rule:nonzero;stroke:none"
       d="m 166.82094,835.18854 45.30594,34.0503 -50.01502,-26.65949 4.70908,-7.39081 z" />
    <path
       id="path4586"
       style="fill:#ffffff;fill-opacity:1;fill-rule:nonzero;stroke:none"
       d="m 169.4241,844.07563 -25.89412,25.16088 19.07004,-30.65872 6.82408,5.49784 z" />
    <path
       id="path4594"
       style="fill:#ffffff;fill-opacity:1;fill-rule:nonzero;stroke:none"
       d="m 215.34904,872.20657 -26.27972,22.0585 19.8354,-27.99744 6.44432,5.93894 z" />
    <path
       id="path4602"
       style="fill:#ffffff;fill-opacity:1;fill-rule:nonzero;stroke:none"
       d="m 141.17747,869.30809 46.09469,28.99942 -48.27688,-25.19885 2.18219,-3.80057 z" />
    <path
       id="path4610"
       style="fill:#ffffff;fill-opacity:1;fill-rule:nonzero;stroke:none"
       d="m 135.88794,875.30398 46.14143,27.51834 -48.23013,-23.66519 2.0887,-3.85315 z" />
    <path
       id="path4618"
       style="fill:#ffffff;fill-opacity:1;fill-rule:nonzero;stroke:none"
       d="m 132.09964,879.54157 46.11806,28.30125 -48.25643,-24.47731 2.13837,-3.82394 z" />
    <path
       id="path4622"
       style="fill:#ffffff;fill-opacity:1;fill-rule:nonzero;stroke:none"
       d="m 133.00874,888.49175 -70.826148,81.26384 -0.408978,-1.51614 c 0.639758,0.33886 1.305807,0.58718 1.869612,1.10424 0.601781,0.41774 1.080869,1.06042 1.448949,1.69434 0.373922,0.66605 0.557962,1.36715 0.677734,2.07701 0.05258,0.69527 0.131458,1.40514 0.03213,2.06827 -0.259993,2.69049 -1.165586,5.1239 -2.106234,7.50474 -1.939722,4.74414 -4.288422,9.2575 -6.578696,13.80005 1.995226,-4.67401 4.060563,-9.3422 5.670181,-14.13308 0.7829,-2.38667 1.492769,-4.84347 1.565801,-7.24182 0.0555,-0.60178 -0.06426,-1.17143 -0.131458,-1.7294 -0.131457,-0.54627 -0.303812,-1.0575 -0.590096,-1.49569 -0.29797,-0.42066 -0.616388,-0.82963 -1.086712,-1.10131 -0.394371,-0.34179 -0.961097,-0.49954 -1.45187,-0.73616 l -1.145137,-0.55504 0.73616,-0.96402 65.538652,-85.58439 6.78611,5.54456 z" />
    <path
       id="path4626"
       style="fill:#ffffff;fill-opacity:1;fill-rule:nonzero;stroke:none"
       d="m 176.8932,912.75728 -70.19807,82.76532 -2.6496,3.1258 -0.33302,-4.0606 c -0.0292,-0.3271 -0.0964,-0.8296 -0.20741,-1.2357 -0.0964,-0.4352 -0.25707,-0.8354 -0.40898,-1.2327 -0.18988,-0.36811 -0.36516,-0.75079 -0.61639,-1.04 -0.20156,-0.35932 -0.52582,-0.52583 -0.77705,-0.8092 -0.34471,-0.12268 -0.59886,-0.42357 -0.99616,-0.46156 -0.371,-0.0846 -0.733235,-0.22504 -1.174347,-0.17246 -0.41774,-0.003 -0.838403,-0.0381 -1.297042,0.0993 -0.446955,0.11381 -0.899751,0.13438 -1.352548,0.31258 -0.89975,0.35931 -1.825792,0.63683 -2.699252,1.16558 -0.893908,0.45571 -1.781973,0.93486 -2.620377,1.53956 -0.850089,0.5755 -1.732312,1.1013 -2.529818,1.7703 l -2.456786,1.9192 -2.176345,1.7002 0.452796,-2.6642 c 0.268757,-1.5921 0.379765,-3.3332 0.233701,-4.96908 -0.143141,-1.63591 -0.540434,-3.27767 -1.466476,-4.48707 -0.470324,-0.58426 -1.028286,-1.113 -1.743997,-1.38176 -0.69234,-0.31258 -1.481083,-0.44988 -2.293196,-0.44988 -1.624225,0.007 -3.306875,0.40898 -4.904808,1.03413 -3.225081,1.20357 -6.231066,3.04396 -9.143571,4.96616 -2.903739,1.9514 -5.676023,4.1073 -8.416173,6.2983 2.62622,-2.3254 5.290417,-4.61857 8.112362,-6.72481 2.836551,-2.07994 5.763662,-4.08977 9.058853,-5.51536 1.630067,-0.72738 3.394513,-1.2649 5.27581,-1.37007 0.940648,-0.0437 1.925115,0.0673 2.854078,0.42651 0.952334,0.31549 1.770289,0.98447 2.421732,1.72647 1.294122,1.54243 1.808265,3.45293 2.068258,5.26996 0.251229,1.8521 0.233701,3.6458 0.0089,5.5271 l -1.723548,-0.9641 2.439259,-2.1091 c 0.791664,-0.7303 1.697256,-1.34381 2.567795,-1.99526 0.850089,-0.67481 1.790737,-1.25322 2.754756,-1.80827 0.917278,-0.61346 1.998147,-1.02535 3.043961,-1.48691 0.522907,-0.23067 1.139295,-0.32427 1.708942,-0.48786 0.560883,-0.18696 1.203563,-0.20752 1.840399,-0.22786 0.625152,-0.0788 1.291202,0.0615 1.954332,0.20449 0.66897,0.0818 1.27367,0.50831 1.8959,0.78874 0.5229,0.42943 1.12761,0.82672 1.50445,1.37008 0.45864,0.50246 0.76829,1.06334 1.08379,1.62422 0.26292,0.57257 0.51415,1.15099 0.67774,1.74113 0.18696,0.6047 0.30673,1.148 0.39729,1.8696 l -2.98261,-0.9348 65.99144,-86.15701 6.82116,5.50075 z" />
    <path
       id="path4634"
       style="fill:#ffffff;fill-opacity:1;fill-rule:nonzero;stroke:none"
       d="M 142.94601,896.98185 56.686798,996.489 136.13653,891.46649 l 6.80948,5.51536 z" />
    <path
       id="path4638"
       style="fill:#ffffff;fill-opacity:1;fill-rule:nonzero;stroke:none"
       d="m 70.333795,1014.5004 -26.446241,10.464 3.561026,-24.4627 c 4.177414,8.4833 6.330388,10.7064 22.885215,13.9987" />
  </g>
</svg>
