<?xml version="1.0" encoding="UTF-8" standalone="no"?>
<!-- Created with Inkscape (http://www.inkscape.org/) -->

<svg
   xmlns:dc="http://purl.org/dc/elements/1.1/"
   xmlns:cc="http://creativecommons.org/ns#"
   xmlns:rdf="http://www.w3.org/1999/02/22-rdf-syntax-ns#"
   xmlns:svg="http://www.w3.org/2000/svg"
   xmlns="http://www.w3.org/2000/svg"
   xmlns:sodipodi="http://sodipodi.sourceforge.net/DTD/sodipodi-0.dtd"
   xmlns:inkscape="http://www.inkscape.org/namespaces/inkscape"
   width="250"
   height="250"
   viewBox="0 0 250 250"
   id="svg5208"
   version="1.1"
   inkscape:version="0.91 r13725"
   sodipodi:docname="remove.svg">
  <defs
     id="defs5210" />
  <sodipodi:namedview
     id="base"
     pagecolor="#ffffff"
     bordercolor="#666666"
     borderopacity="1.0"
     inkscape:pageopacity="0.0"
     inkscape:pageshadow="2"
     inkscape:zoom="0.35"
     inkscape:cx="-507.85714"
     inkscape:cy="520"
     inkscape:document-units="px"
     inkscape:current-layer="layer1"
     showgrid="false"
     units="px"
     inkscape:window-width="1440"
     inkscape:window-height="840"
     inkscape:window-x="0"
     inkscape:window-y="29"
     inkscape:window-maximized="1" />
  <metadata
     id="metadata5213">
    <rdf:RDF>
      <cc:Work
         rdf:about="">
        <dc:format>image/svg+xml</dc:format>
        <dc:type
           rdf:resource="http://purl.org/dc/dcmitype/StillImage" />
        <dc:title />
      </cc:Work>
    </rdf:RDF>
  </metadata>
  <g
     inkscape:label="Layer 1"
     inkscape:groupmode="layer"
     id="layer1"
     transform="translate(0,-802.36216)">
    <path
       d="m 60.020711,868.44996 c 0,0 2.67061,2.09755 7.346932,5.76734 4.621221,3.66612 11.068157,8.9853 18.697946,15.47632 7.611418,6.50937 16.365291,14.22736 25.497521,22.75333 4.54041,4.30177 9.2755,8.66203 13.9004,13.32733 2.32898,2.30694 4.67633,4.62857 7.03469,6.96137 2.29591,2.3951 4.59918,4.80107 6.90611,7.20734 4.65429,4.74611 9.07714,9.7529 13.43754,14.64243 4.44121,4.7902 8.40121,9.95128 12.40529,14.70474 3.99673,4.77198 7.42775,9.79728 10.88448,14.31564 3.39427,4.58449 6.17876,9.27182 8.94856,13.37875 1.41428,2.03508 2.56041,4.14375 3.63673,6.14555 1.09102,1.9875 2.12326,3.8719 3.09306,5.6463 0.94408,1.7814 1.92122,3.3796 2.64856,4.97 0.6796,1.609 1.30776,3.0858 1.87347,4.4194 2.23715,5.2933 3.51551,8.3167 3.51551,8.3167 0,0 -1.73388,-2.781 -4.77183,-7.6482 -0.75306,-1.2048 -1.58326,-2.542 -2.49429,-3.9967 -0.94407,-1.4253 -2.16367,-2.8544 -3.35387,-4.4375 -1.21225,-1.5649 -2.50163,-3.2327 -3.86081,-4.9886 -1.34082,-1.7598 -2.75143,-3.6 -4.44857,-5.3671 -3.33918,-3.57057 -6.67836,-7.60403 -10.65672,-11.50881 -4.05918,-3.84626 -8.05224,-8.09632 -12.64407,-12.0857 -4.60652,-3.98204 -9.11386,-8.27647 -14.15018,-12.22177 -4.93346,-4.02964 -9.90367,-8.13658 -15.11632,-11.99019 -2.57143,-1.95429 -5.14285,-3.90857 -7.70693,-5.85168 -2.61918,-1.88082 -5.22734,-3.75076 -7.81346,-5.60571 -5.12081,-3.75811 -10.3555,-7.23321 -15.344067,-10.65306 -10.04693,-6.77769 -19.594271,-12.82774 -27.841201,-17.88242 -8.261625,-5.03265 -15.197129,-9.11755 -20.068145,-11.86166 -4.837955,-2.69265 -7.604075,-4.23184 -7.604075,-4.23184 l 18.047739,-27.7016 z"
       style="fill:#ffffff;fill-opacity:1;fill-rule:nonzero;stroke:none"
       id="path5192"
       inkscape:connector-curvature="0" />
    <path
       d="m 194.83323,883.79365 c 0,0 -2.01306,2.65224 -5.53958,7.28815 -3.51551,4.58449 -8.62898,10.97629 -14.87387,18.54363 -6.26326,7.5453 -13.69836,16.22584 -21.92323,25.28079 -4.1547,4.50014 -8.35714,9.19836 -12.87183,13.78667 -2.22612,2.30694 -4.47061,4.63209 -6.72244,6.96842 l -6.97959,6.85116 c -4.58816,4.61387 -9.44448,8.99999 -14.18693,13.31616 -4.63958,4.40463 -9.65754,8.33143 -14.275085,12.29525 -4.628566,3.96002 -9.53264,7.35425 -13.926109,10.77796 -4.459584,3.36106 -9.040398,6.10886 -13.040804,8.84576 -1.983671,1.3994 -4.040812,2.5308 -6.002443,3.5888 -1.93959,1.0765 -3.78367,2.0938 -5.513872,3.0489 -1.741223,0.9296 -3.302447,1.8956 -4.856322,2.6082 -1.575918,0.6685 -3.01959,1.2822 -4.327344,1.8367 -5.175913,2.1933 -8.136727,3.4458 -8.136727,3.4458 0,0 2.714691,-1.708 7.468157,-4.6983 1.175509,-0.742 2.475916,-1.5613 3.897547,-2.4538 1.38857,-0.9331 2.777141,-2.138 4.319996,-3.3135 1.520815,-1.1976 3.140814,-2.4686 4.848976,-3.8096 1.711834,-1.3224 3.500812,-2.7145 5.212648,-4.3934 3.456732,-3.2988 7.376323,-6.5937 11.145297,-10.5317 3.713875,-4.01524 7.828158,-7.95673 11.670602,-12.50447 3.831427,-4.55158 7.971421,-9.01469 11.758763,-13.99238 3.87184,-4.87837 7.81346,-9.79699 11.50162,-14.95101 1.8698,-2.54557 3.73959,-5.09142 5.60204,-7.62612 1.79633,-2.58612 3.5853,-5.16488 5.35958,-7.72515 3.59266,-5.06585 6.89878,-10.24162 10.16081,-15.17523 6.45428,-9.93305 12.20693,-19.37386 17.0008,-27.52526 4.76815,-8.16244 8.63264,-15.01712 11.22243,-19.82569 2.53837,-4.77918 3.98938,-7.50856 3.98938,-7.50856 l 28.01753,17.55182 z"
       style="fill:#ffffff;fill-opacity:1;fill-rule:nonzero;stroke:none"
       id="path5196"
       inkscape:connector-curvature="0" />
  </g>
</svg>
