<?xml version="1.0" encoding="UTF-8" standalone="no"?>
<svg
   xmlns:dc="http://purl.org/dc/elements/1.1/"
   xmlns:cc="http://creativecommons.org/ns#"
   xmlns:rdf="http://www.w3.org/1999/02/22-rdf-syntax-ns#"
   xmlns:svg="http://www.w3.org/2000/svg"
   xmlns="http://www.w3.org/2000/svg"
   version="1.1"
   id="svg4737"
   viewBox="0 0 250 250"
   height="250"
   width="250">
  <defs
     id="defs4739" />
  <metadata
     id="metadata4742">
    <rdf:RDF>
      <cc:Work
         rdf:about="">
        <dc:format>image/svg+xml</dc:format>
        <dc:type
           rdf:resource="http://purl.org/dc/dcmitype/StillImage" />
        <dc:title></dc:title>
      </cc:Work>
    </rdf:RDF>
  </metadata>
  <g
     transform="translate(0,-802.36216)"
     id="layer1">
    <path
       id="path4446"
       style="fill:#ffffff;fill-opacity:1;fill-rule:nonzero;stroke:none"
       d="m 132.77812,1007.8687 c 0,0 -0.65992,-1.8147 -1.81477,-4.9927 -0.28655,-0.7931 -0.60782,-1.673 -0.95515,-2.6311 -0.32996,-0.78728 -0.68597,-1.63823 -1.06803,-2.54985 -0.78437,-1.78873 -1.49929,-3.85832 -2.76992,-6.12451 -0.58756,-1.1434 -1.19827,-2.33588 -1.83214,-3.56889 -0.6715,-1.20684 -1.45588,-2.37918 -2.2171,-3.64113 -1.45587,-2.59615 -3.40958,-4.95794 -5.29382,-7.61498 -2.11869,-2.39377 -4.21422,-5.06517 -6.75839,-7.35474 -2.39365,-2.48616 -5.18962,-4.60786 -7.97981,-6.82194 l -4.405247,-3.04489 c -1.493501,-0.9871 -3.079622,-1.81768 -4.616539,-2.73531 -1.525339,-0.94936 -3.134616,-1.70769 -4.732314,-2.46879 -1.606382,-0.72939 -3.146194,-1.62086 -4.778625,-2.19973 -3.215658,-1.30247 -6.36764,-2.56442 -9.467523,-3.47048 -3.059362,-1.07092 -6.049259,-1.77136 -8.813393,-2.47759 -2.758346,-0.77848 -5.351712,-1.14317 -7.638274,-1.63243 -2.289456,-0.48904 -4.309735,-0.76991 -5.976899,-0.99567 -3.343011,-0.47746 -5.253303,-0.74953 -5.253303,-0.74953 l 5.29093,-0.49506 c 1.690319,-0.16671 3.748225,-0.36747 6.118724,-0.42535 2.36471,-0.0579 5.062274,-0.30982 7.997177,-0.19451 2.937797,0.0463 6.150561,0.0347 9.539883,0.37627 3.412476,0.17367 6.984143,0.68887 10.717896,1.25616 1.884242,0.21072 3.730858,0.74676 5.652728,1.12302 1.916081,0.408 3.866894,0.82201 5.78008,1.4472 1.92187,0.59624 3.907419,1.11144 5.840859,1.80887 1.93056,0.74397 3.8669,1.4935 5.80324,2.24326 3.77427,1.72783 7.64696,3.46168 11.17231,5.68156 3.67876,2.02329 6.94363,4.5326 10.22875,6.87705 3.03621,2.5848 6.16214,5.01029 8.69183,7.6847 1.30247,1.30826 2.6281,2.55562 3.80901,3.83494 1.14038,1.31405 2.24025,2.58179 3.2967,3.80044 2.16499,2.36181 3.94214,4.95793 5.58326,7.16345 0.79595,1.10867 1.5427,2.14763 2.23446,3.10579 0.56151,0.85095 1.07671,1.63243 1.53981,2.33565 1.86109,2.82214 2.92622,4.43419 2.92622,4.43419 l -25.85262,13.01613 z" />
    <path
       id="path4450"
       style="fill:#ffffff;fill-opacity:1;fill-rule:nonzero;stroke:none"
       d="m 129.53352,992.10519 c 0,0 0.54125,-2.73808 1.4935,-7.53396 0.23734,-1.19827 0.50073,-2.5239 0.78438,-3.96829 0.26339,-1.42103 0.85095,-3.28802 1.31405,-5.0911 1.04777,-3.62678 2.05791,-7.97414 3.52536,-12.14205 1.50508,-4.13596 3.00437,-8.67157 4.83651,-13.31115 1.95371,-4.57891 3.8611,-9.46463 6.11004,-14.35034 2.33577,-4.83941 4.53839,-9.93352 7.14912,-14.8887 2.58469,-4.97255 5.09411,-10.06388 7.90167,-14.98132 2.71493,-4.96676 5.47617,-9.89022 8.33003,-14.65137 2.76703,-4.80768 5.64404,-9.44147 8.41396,-13.92498 2.72651,-4.50366 5.5659,-8.73803 8.1448,-12.80475 2.66572,-4.01161 5.18962,-7.80024 7.5196,-11.29966 9.44726,-13.89883 16.18249,-22.80472 16.18249,-22.80472 0,0 -5.21278,9.8872 -12.24903,25.03339 -1.71926,3.80044 -3.58324,7.91903 -5.55431,12.27218 -1.87267,4.39946 -3.96241,8.97258 -5.90165,13.80041 -1.98554,4.80769 -4.04056,9.76287 -5.96243,14.85976 -2.0058,5.05938 -3.89294,10.24912 -5.71929,15.44442 -1.92477,5.1608 -3.52247,10.41978 -5.207,15.54005 -1.71347,5.11426 -2.987,10.24033 -4.43708,15.12303 -1.35458,4.9061 -2.35893,9.6846 -3.47326,14.16812 -0.97252,4.50065 -1.63243,8.75539 -2.38208,12.65424 -0.42837,1.99133 -0.50652,3.7048 -0.71202,5.39512 -0.18825,1.66717 -0.3618,3.25028 -0.52678,4.73521 -0.14471,1.53101 -0.39074,2.74084 -0.42547,4.24314 -0.0493,1.47035 -0.0954,2.82191 -0.13592,4.04334 -0.16208,4.87993 -0.2547,7.67011 -0.2547,7.67011 l -28.76437,-3.23013 z" />
    <path
       id="path4454"
       style="fill:none;stroke:#ffffff;stroke-width:8.68314552;stroke-linecap:butt;stroke-linejoin:miter;stroke-miterlimit:10;stroke-dasharray:none;stroke-opacity:1"
       d="m 53.06365,925.88824 86.33073,-1.57177" />
    <path
       id="path4458"
       style="fill:none;stroke:#ffffff;stroke-width:8.68314552;stroke-linecap:butt;stroke-linejoin:miter;stroke-miterlimit:10;stroke-dasharray:none;stroke-opacity:1"
       d="m 183.13199,927.98215 0,103.43055" />
    <path
       id="path4462"
       style="fill:none;stroke:#ffffff;stroke-width:8.68314552;stroke-linecap:butt;stroke-linejoin:miter;stroke-miterlimit:10;stroke-dasharray:none;stroke-opacity:1"
       d="m 183.13199,1027.1728 -125.488825,0" />
    <path
       id="path4466"
       style="fill:none;stroke:#ffffff;stroke-width:8.68314552;stroke-linecap:butt;stroke-linejoin:miter;stroke-miterlimit:10;stroke-dasharray:none;stroke-opacity:1"
       d="m 55.811577,960.43489 1.832143,70.81971" />
  </g>
</svg>
