<?xml version="1.0" encoding="UTF-8" standalone="no"?>
<!-- Created with Inkscape (http://www.inkscape.org/) -->

<svg
   xmlns:dc="http://purl.org/dc/elements/1.1/"
   xmlns:cc="http://creativecommons.org/ns#"
   xmlns:rdf="http://www.w3.org/1999/02/22-rdf-syntax-ns#"
   xmlns:svg="http://www.w3.org/2000/svg"
   xmlns="http://www.w3.org/2000/svg"
   xmlns:sodipodi="http://sodipodi.sourceforge.net/DTD/sodipodi-0.dtd"
   xmlns:inkscape="http://www.inkscape.org/namespaces/inkscape"
   id="svg7868"
   version="1.1"
   inkscape:version="0.91 r13725"
   xml:space="preserve"
   width="250"
   height="250"
   viewBox="0 0 250 0"
   sodipodi:docname="watermellon.svg"><metadata
     id="metadata7874"><rdf:RDF><cc:Work
         rdf:about=""><dc:format>image/svg+xml</dc:format><dc:type
           rdf:resource="http://purl.org/dc/dcmitype/StillImage" /><dc:title></dc:title></cc:Work></rdf:RDF></metadata><defs
     id="defs7872"><clipPath
       clipPathUnits="userSpaceOnUse"
       id="clipPath7882"><path
         d="M 0,144 144,144 144,0 0,0 0,144 Z"
         id="path7884"
         inkscape:connector-curvature="0" /></clipPath></defs><sodipodi:namedview
     pagecolor="#ffffff"
     bordercolor="#666666"
     borderopacity="1"
     objecttolerance="10"
     gridtolerance="10"
     guidetolerance="10"
     inkscape:pageopacity="0"
     inkscape:pageshadow="2"
     inkscape:window-width="1440"
     inkscape:window-height="840"
     id="namedview7870"
     showgrid="false"
     inkscape:zoom="0.60889751"
     inkscape:cx="-55.122159"
     inkscape:cy="68.981568"
     inkscape:window-x="0"
     inkscape:window-y="29"
     inkscape:window-maximized="1"
     inkscape:current-layer="g7876" /><g
     id="g7876"
     inkscape:groupmode="layer"
     inkscape:label="BumpULump"
     transform="matrix(1.25,0,0,-1.25,0,150)"><g
       id="g7878"
       transform="matrix(1.6326531,0,0,1.6326531,-17.55102,-100.75102)"><g
         id="g7880"
         clip-path="url(#clipPath7882)"><g
           id="g7886"
           transform="translate(118,72)"><path
             d="m 0,0 c 0,-25.405 -20.595,-46 -46,-46 -25.405,0 -46,20.595 -46,46 0,25.405 20.595,46 46,46 C -20.595,46 0,25.405 0,0 Z"
             style="fill:none;stroke:#ffffff;stroke-width:6;stroke-linecap:butt;stroke-linejoin:miter;stroke-miterlimit:10;stroke-dasharray:none;stroke-opacity:1"
             id="path7888"
             inkscape:connector-curvature="0" /></g><g
           id="g7890"
           transform="translate(75.5,118)"><path
             d="M 0,0 -3.5,-46 -7,0 0,0 Z"
             style="fill:#ffffff;fill-opacity:1;fill-rule:nonzero;stroke:none"
             id="path7892"
             inkscape:connector-curvature="0" /></g><g
           id="g7894"
           transform="translate(118,68.5)"><path
             d="M 0,0 -46,3.5 0,7 0,0 Z"
             style="fill:#ffffff;fill-opacity:1;fill-rule:nonzero;stroke:none"
             id="path7896"
             inkscape:connector-curvature="0" /></g><g
           id="g7898"
           transform="translate(68.5,26)"><path
             d="M 0,0 3.5,46 7,0 0,0 Z"
             style="fill:#ffffff;fill-opacity:1;fill-rule:nonzero;stroke:none"
             id="path7900"
             inkscape:connector-curvature="0" /></g><g
           id="g7902"
           transform="translate(26,75.5)"><path
             d="M 0,0 46,-3.5 0,-7 0,0 Z"
             style="fill:#ffffff;fill-opacity:1;fill-rule:nonzero;stroke:none"
             id="path7904"
             inkscape:connector-curvature="0" /></g><g
           id="g7906"
           transform="translate(43.9967,108.6534)"><path
             d="M 0,0 28.003,-36.653 -5.224,-4.66 0,0 Z"
             style="fill:#ffffff;fill-opacity:1;fill-rule:nonzero;stroke:none"
             id="path7908"
             inkscape:connector-curvature="0" /></g><g
           id="g7910"
           transform="translate(108.3492,100.4052)"><path
             d="M 0,0 -36.349,-28.405 -4.716,5.173 0,0 Z"
             style="fill:#ffffff;fill-opacity:1;fill-rule:nonzero;stroke:none"
             id="path7912"
             inkscape:connector-curvature="0" /></g><g
           id="g7914"
           transform="translate(101.9069,36.8092)"><path
             d="M 0,0 -29.907,34.191 4.898,5.001 0,0 Z"
             style="fill:#ffffff;fill-opacity:1;fill-rule:nonzero;stroke:none"
             id="path7916"
             inkscape:connector-curvature="0" /></g><g
           id="g7918"
           transform="translate(37.1951,41.8102)"><path
             d="M 0,0 34.805,29.19 4.898,-5.001 0,0 Z"
             style="fill:#ffffff;fill-opacity:1;fill-rule:nonzero;stroke:none"
             id="path7920"
             inkscape:connector-curvature="0" /></g><g
           id="g7922"
           transform="translate(57.2933,76.5029)"><path
             d="m 0,0 -2.466,-0.698 c -1.361,-0.385 -2.778,0.407 -3.163,1.768 -0.385,1.362 0.406,2.778 1.768,3.164 l 0,0 c 1.362,0.385 2.778,-0.407 3.163,-1.768 L 0,0 Z"
             style="fill:#ffffff;fill-opacity:1;fill-rule:nonzero;stroke:none"
             id="path7924"
             inkscape:connector-curvature="0" /></g><g
           id="g7926"
           transform="translate(57.2933,76.5029)"><path
             d="m 0,0 -2.466,-0.698 c -1.361,-0.385 -2.778,0.407 -3.163,1.768 -0.385,1.362 0.406,2.778 1.768,3.164 l 0,0 c 1.362,0.385 2.778,-0.407 3.163,-1.768 L 0,0 Z"
             style="fill:none;stroke:#ffffff;stroke-width:1;stroke-linecap:butt;stroke-linejoin:miter;stroke-miterlimit:10;stroke-dasharray:none;stroke-opacity:1"
             id="path7928"
             inkscape:connector-curvature="0" /></g><g
           id="g7930"
           transform="translate(78.9096,88.8521)"><path
             d="M 0,0 -1.529,2.057 C -2.373,3.192 -2.137,4.798 -1.001,5.642 0.135,6.486 1.74,6.25 2.584,5.114 3.429,3.978 3.192,2.373 2.057,1.529 L 0,0 Z"
             style="fill:#ffffff;fill-opacity:1;fill-rule:nonzero;stroke:none"
             id="path7932"
             inkscape:connector-curvature="0" /></g><g
           id="g7934"
           transform="translate(78.9096,88.8521)"><path
             d="M 0,0 -1.529,2.057 C -2.373,3.192 -2.137,4.798 -1.001,5.642 0.135,6.486 1.74,6.25 2.584,5.114 3.429,3.978 3.192,2.373 2.057,1.529 L 0,0 Z"
             style="fill:none;stroke:#ffffff;stroke-width:1;stroke-linecap:butt;stroke-linejoin:miter;stroke-miterlimit:10;stroke-dasharray:none;stroke-opacity:1"
             id="path7936"
             inkscape:connector-curvature="0" /></g><g
           id="g7938"
           transform="translate(65.3991,57.2502)"><path
             d="m 0,0 2.113,-1.45 c 1.167,-0.8 1.464,-2.395 0.664,-3.562 l 0,0 C 1.976,-6.179 0.381,-6.476 -0.786,-5.676 -1.953,-4.875 -2.25,-3.28 -1.45,-2.113 L 0,0 Z"
             style="fill:#ffffff;fill-opacity:1;fill-rule:nonzero;stroke:none"
             id="path7940"
             inkscape:connector-curvature="0" /></g><g
           id="g7942"
           transform="translate(65.3991,57.2502)"><path
             d="m 0,0 2.113,-1.45 c 1.167,-0.8 1.464,-2.395 0.664,-3.562 l 0,0 C 1.976,-6.179 0.381,-6.476 -0.786,-5.676 -1.953,-4.875 -2.25,-3.28 -1.45,-2.113 L 0,0 Z"
             style="fill:none;stroke:#ffffff;stroke-width:1;stroke-linecap:butt;stroke-linejoin:miter;stroke-miterlimit:10;stroke-dasharray:none;stroke-opacity:1"
             id="path7944"
             inkscape:connector-curvature="0" /></g><g
           id="g7946"
           transform="translate(96.684,82.461)"><path
             d="M 0,0 1.818,1.806 C 2.822,2.803 4.445,2.798 5.442,1.794 l 0,0 C 6.439,0.79 6.434,-0.833 5.43,-1.83 l 0,0 C 4.426,-2.828 2.803,-2.822 1.806,-1.818 L 0,0 Z"
             style="fill:#ffffff;fill-opacity:1;fill-rule:nonzero;stroke:none"
             id="path7948"
             inkscape:connector-curvature="0" /></g><g
           id="g7950"
           transform="translate(96.684,82.461)"><path
             d="M 0,0 1.818,1.806 C 2.822,2.803 4.445,2.798 5.442,1.794 l 0,0 C 6.439,0.79 6.434,-0.833 5.43,-1.83 l 0,0 C 4.426,-2.828 2.803,-2.822 1.806,-1.818 L 0,0 Z"
             style="fill:none;stroke:#ffffff;stroke-width:1;stroke-linecap:butt;stroke-linejoin:miter;stroke-miterlimit:10;stroke-dasharray:none;stroke-opacity:1"
             id="path7952"
             inkscape:connector-curvature="0" /></g><g
           id="g7954"
           transform="translate(80.3477,51.3614)"><path
             d="m 0,0 1.299,-2.209 c 0.717,-1.22 0.31,-2.79 -0.91,-3.508 l 0,0 c -1.22,-0.717 -2.791,-0.31 -3.508,0.91 l 0,0 c -0.717,1.22 -0.31,2.791 0.91,3.508 L 0,0 Z"
             style="fill:#ffffff;fill-opacity:1;fill-rule:nonzero;stroke:none"
             id="path7956"
             inkscape:connector-curvature="0" /></g><g
           id="g7958"
           transform="translate(80.3477,51.3614)"><path
             d="m 0,0 1.299,-2.209 c 0.717,-1.22 0.31,-2.79 -0.91,-3.508 l 0,0 c -1.22,-0.717 -2.791,-0.31 -3.508,0.91 l 0,0 c -0.717,1.22 -0.31,2.791 0.91,3.508 L 0,0 Z"
             style="fill:none;stroke:#ffffff;stroke-width:1;stroke-linecap:butt;stroke-linejoin:miter;stroke-miterlimit:10;stroke-dasharray:none;stroke-opacity:1"
             id="path7960"
             inkscape:connector-curvature="0" /></g><g
           id="g7962"
           transform="translate(87.4955,46.1919)"><path
             d="M 0,0 2.558,0.149 C 3.971,0.232 5.183,-0.847 5.266,-2.26 l 0,0 C 5.348,-3.672 4.27,-4.885 2.857,-4.967 l 0,0 C 1.444,-5.049 0.232,-3.971 0.149,-2.558 L 0,0 Z"
             style="fill:#ffffff;fill-opacity:1;fill-rule:nonzero;stroke:none"
             id="path7964"
             inkscape:connector-curvature="0" /></g><g
           id="g7966"
           transform="translate(87.4955,46.1919)"><path
             d="M 0,0 2.558,0.149 C 3.971,0.232 5.183,-0.847 5.266,-2.26 l 0,0 C 5.348,-3.672 4.27,-4.885 2.857,-4.967 l 0,0 C 1.444,-5.049 0.232,-3.971 0.149,-2.558 L 0,0 Z"
             style="fill:none;stroke:#ffffff;stroke-width:1;stroke-linecap:butt;stroke-linejoin:miter;stroke-miterlimit:10;stroke-dasharray:none;stroke-opacity:1"
             id="path7968"
             inkscape:connector-curvature="0" /></g><g
           id="g7970"
           transform="translate(49,87.1393)"><path
             d="m 0,0 -1.981,-1.625 c -1.095,-0.897 -2.709,-0.738 -3.607,0.356 l 0,10e-4 c -0.897,1.094 -0.738,2.708 0.357,3.606 l 0,0 c 1.094,0.897 2.709,0.738 3.606,-0.357 L 0,0 Z"
             style="fill:#ffffff;fill-opacity:1;fill-rule:nonzero;stroke:none"
             id="path7972"
             inkscape:connector-curvature="0" /></g><g
           id="g7974"
           transform="translate(49,87.1393)"><path
             d="m 0,0 -1.981,-1.625 c -1.095,-0.897 -2.709,-0.738 -3.607,0.356 l 0,10e-4 c -0.897,1.094 -0.738,2.708 0.357,3.606 l 0,0 c 1.094,0.897 2.709,0.738 3.606,-0.357 L 0,0 Z"
             style="fill:none;stroke:#ffffff;stroke-width:1;stroke-linecap:butt;stroke-linejoin:miter;stroke-miterlimit:10;stroke-dasharray:none;stroke-opacity:1"
             id="path7976"
             inkscape:connector-curvature="0" /></g></g></g></g></svg>