<?xml version="1.0" encoding="UTF-8" standalone="no"?>
<!-- Created with Inkscape (http://www.inkscape.org/) -->

<svg
   xmlns:dc="http://purl.org/dc/elements/1.1/"
   xmlns:cc="http://creativecommons.org/ns#"
   xmlns:rdf="http://www.w3.org/1999/02/22-rdf-syntax-ns#"
   xmlns:svg="http://www.w3.org/2000/svg"
   xmlns="http://www.w3.org/2000/svg"
   xmlns:sodipodi="http://sodipodi.sourceforge.net/DTD/sodipodi-0.dtd"
   xmlns:inkscape="http://www.inkscape.org/namespaces/inkscape"
   width="250"
   height="250"
   viewBox="0 0 250 250"
   id="svg6413"
   version="1.1"
   inkscape:version="0.91 r13725"
   sodipodi:docname="assign.svg">
  <defs
     id="defs6415" />
  <sodipodi:namedview
     id="base"
     pagecolor="#ffffff"
     bordercolor="#666666"
     borderopacity="1.0"
     inkscape:pageopacity="0.0"
     inkscape:pageshadow="2"
     inkscape:zoom="0.35"
     inkscape:cx="-66.428571"
     inkscape:cy="520"
     inkscape:document-units="px"
     inkscape:current-layer="layer1"
     showgrid="false"
     units="px"
     inkscape:window-width="1440"
     inkscape:window-height="840"
     inkscape:window-x="0"
     inkscape:window-y="29"
     inkscape:window-maximized="1" />
  <metadata
     id="metadata6418">
    <rdf:RDF>
      <cc:Work
         rdf:about="">
        <dc:format>image/svg+xml</dc:format>
        <dc:type
           rdf:resource="http://purl.org/dc/dcmitype/StillImage" />
        <dc:title></dc:title>
      </cc:Work>
    </rdf:RDF>
  </metadata>
  <g
     inkscape:label="Layer 1"
     inkscape:groupmode="layer"
     id="layer1"
     transform="translate(0,-802.36222)">
    <path
       d="M 54.482477,975.96149 95.86656,904.91817 57.918729,977.85598 54.482477,975.96149 Z"
       style="fill:#ffffff;fill-opacity:1;fill-rule:nonzero;stroke:none"
       id="path5128"
       inkscape:connector-curvature="0" />
    <path
       d="m 138.9162,1021.1399 c 0,0 -0.36873,0.3571 -1.0552,1.024 -0.46679,0.4393 -2.32614,2.2986 -3.96973,3.5931 -3.48725,2.8438 -8.89267,6.5311 -16.09076,9.0064 -3.58531,1.2355 -7.59035,2.181 -11.84644,2.5812 -2.13,0.1788 -4.311,0.2793 -6.52731,0.1914 l -1.66713,-0.079 -0.4158,-0.031 -0.48249,-0.031 -0.0431,0 -0.0863,0 -0.17259,-0.031 -0.69824,-0.097 c -0.93359,-0.135 -1.87895,-0.2668 -2.82824,-0.4001 -2.15354,-0.4356 -4.981776,-0.922 -7.096091,-1.7144 l -3.334262,-1.1846 -3.224428,-1.5142 c -4.209016,-2.1967 -8.159136,-4.9385 -11.462017,-8.2533 -6.668525,-6.5938 -10.955994,-14.8041 -13.136994,-22.7122 -1.078731,-3.96564 -1.745584,-7.85316 -1.94564,-11.54046 -0.051,-0.9179 -0.101989,-1.82388 -0.149061,-2.71448 0,-1.14134 0.04315,-1.74543 0.09807,-2.68687 0.188288,-1.93403 0.52956,-3.60884 0.961052,-5.16222 1.792657,-6.23326 4.562056,-10.66179 6.476315,-13.70986 1.973099,-3.02045 3.291113,-4.59359 3.291113,-4.59359 0,0 -1.015969,1.78873 -2.396746,5.06808 -1.321938,3.26365 -3.189124,8.09637 -3.753988,13.91383 -0.137293,1.45139 -0.137293,2.94577 -0.04315,4.31085 0.07845,0.70608 0.219669,1.77713 0.329504,2.33414 0.19221,0.79238 0.384421,1.60045 0.584476,2.41636 0.772765,3.25173 1.992713,6.55461 3.530396,9.76743 3.091057,6.42529 7.892395,12.35639 13.733238,16.30639 2.898847,2.0084 6.087971,3.3854 9.233945,4.3582 l 2.377133,0.6235 2.396746,0.365 c 1.671059,0.2824 2.745869,0.1569 4.361999,0.2511 0.95713,-0.035 1.91034,-0.072 2.85178,-0.1099 l 0.70215,-0.031 0.17652,0 0.0902,0 0.0431,0 c 0.40011,0 -0.49818,-0.031 -0.39226,0 l 0.27851,-0.044 1.10619,-0.1569 c 1.46315,-0.2166 2.85962,-0.5571 4.1894,-0.9179 2.65956,-0.7689 5.01708,-1.8437 7.05294,-3.0126 4.08349,-2.3458 6.79798,-5.135 8.4808,-7.1512 0.9532,-1.1492 1.00812,-1.3494 1.77304,-2.3731 0.55702,-0.7807 0.85514,-1.1965 0.85514,-1.1965 l 17.84419,15.3454 z"
       style="fill:#ffffff;fill-opacity:1;fill-rule:nonzero;stroke:none"
       id="path5140"
       inkscape:connector-curvature="0" />
    <path
       d="m 140.08986,967.01782 -20.58221,33.09158 0.41581,-0.78453 c -3.17736,6.38203 -8.80246,11.29323 -15.38861,13.61943 -1.65144,0.5608 -3.3421,1.0121 -5.06023,1.2512 -0.85514,0.1444 -1.72205,0.1946 -2.58111,0.2636 l -1.29056,0.031 -1.14541,0 -0.40796,-0.031 -0.81199,-0.066 -1.07481,-0.1098 c -0.98459,-0.1381 -2.0947,-0.2981 -2.953765,-0.5137 -1.682821,-0.4042 -3.314649,-0.965 -4.887636,-1.6632 -6.288026,-2.8244 -11.30511,-8.0964 -13.807768,-14.43166 -0.615858,-1.58476 -1.082655,-3.22035 -1.412159,-4.88356 -0.286354,-1.67105 -0.447183,-3.34619 -0.439338,-5.02101 -0.0039,-1.52983 0.168675,-3.38918 0.502101,-5.00155 0.337349,-1.6789 0.85514,-3.34995 1.529838,-4.92278 l -0.67862,3.45571 0.0039,-0.0345 0.07453,-2.62818 1.063041,-1.7925 40.497556,-68.33277 10.12047,-17.07927 5.06023,-8.53963 1.2631,-2.13393 0.74923,-1.26702 0.6747,-1.0395 c 0.36873,-0.61979 1.12972,-1.62399 1.7142,-2.42421 0.62762,-0.81984 1.24741,-1.52199 1.8868,-2.27122 5.24067,-5.76631 12.23478,-9.87334 19.77022,-11.46202 3.71868,-0.80022 7.69234,-1.07088 11.30511,-0.66685 1.52199,0.0979 3.95012,0.52171 5.69962,0.96105 l 2.73802,0.78061 2.64388,1.03951 c 3.47155,1.51022 6.69206,3.52647 9.55168,5.95852 2.80862,2.49089 5.2289,5.37797 7.17847,8.54356 3.87559,6.34294 5.66824,13.93329 5.11907,21.15883 -0.26674,3.71476 -1.11011,7.26477 -2.47128,10.65003 -0.68254,1.68674 -1.50238,3.31073 -2.43205,4.8641 l -2.71448,4.24416 -10.69317,16.72623 -42.77663,66.90895 38.85397,-69.25847 9.71251,-17.31462 c 1.68674,-3.02438 3.26757,-5.52703 4.16194,-8.37489 0.94928,-2.81254 1.46707,-5.81338 1.5063,-8.71223 0.0981,-5.9899 -1.70243,-11.7876 -4.99355,-16.56148 -1.66321,-2.36928 -3.65984,-4.47967 -5.91145,-6.26056 -2.29476,-1.72597 -4.82095,-3.09498 -7.47659,-4.07565 l -2.01625,-0.66293 -2.06724,-0.45503 c -0.70608,-0.20021 -1.31017,-0.18044 -1.95741,-0.28651 -0.60801,-0.0863 -1.24348,-0.18044 -2.1457,-0.16852 -2.98514,-0.16883 -5.68001,0.23128 -8.38272,0.96106 -5.36229,1.45923 -10.12047,4.6915 -13.53711,8.92013 -0.40011,0.5374 -0.84337,1.10227 -1.19249,1.62006 -0.33735,0.56878 -0.60801,0.86691 -1.0552,1.69067 l -0.61193,1.07873 c 0.0863,-0.13337 -0.32558,0.65116 -0.45503,0.90221 l -1.1415,2.20454 -4.55813,8.81814 -9.12019,17.63628 -36.484672,70.51754 1.137572,-4.41692 0.0041,0.0345 0.0353,1.28287 -0.713925,2.17692 c -0.145138,0.43557 -0.235359,0.85922 -0.286354,1.31424 -0.051,0.52156 -0.06668,0.83537 -0.01569,1.47492 0.03923,0.50211 0.137294,0.97659 0.239283,1.44354 0.145138,0.45503 0.30989,0.89814 0.509946,1.32586 0.835527,1.68675 2.36929,3.0283 4.07564,3.61262 0.4315,0.13494 0.86299,0.24163 1.30233,0.31381 0.19221,0.0345 0.16867,-0.0314 0.25105,0.0314 -0.0706,0.0314 0.27458,0.0314 0.54525,0.0314 l 0.81199,0.0314 0.40796,0 c 0.45895,0 -0.61194,0 -0.49818,0 l 0.004,0 0.0119,-0.003 0.0195,-0.003 0.0431,-0.003 0.0824,0 0.33735,-0.0314 c 0.21574,-0.0565 0.43934,-0.0628 0.65116,-0.12866 0.42757,-0.091 0.82376,-0.25733 1.21995,-0.41581 1.54945,-0.71392 2.78901,-2.06332 3.34995,-3.53039 l 0.0314,-0.0784 0.38442,-0.70608 18.64441,-34.2213 20.33508,11.85051 z"
       style="fill:#ffffff;fill-opacity:1;fill-rule:nonzero;stroke:none"
       id="path5144"
       inkscape:connector-curvature="0" />
  </g>
</svg>
