<?xml version="1.0" encoding="UTF-8" standalone="no"?>
<svg
   xmlns:dc="http://purl.org/dc/elements/1.1/"
   xmlns:cc="http://creativecommons.org/ns#"
   xmlns:rdf="http://www.w3.org/1999/02/22-rdf-syntax-ns#"
   xmlns:svg="http://www.w3.org/2000/svg"
   xmlns="http://www.w3.org/2000/svg"
   version="1.1"
   id="svg4737"
   viewBox="0 0 250 250"
   height="250"
   width="250">
  <defs
     id="defs4739" />
  <metadata
     id="metadata4742">
    <rdf:RDF>
      <cc:Work
         rdf:about="">
        <dc:format>image/svg+xml</dc:format>
        <dc:type
           rdf:resource="http://purl.org/dc/dcmitype/StillImage" />
        <dc:title></dc:title>
      </cc:Work>
    </rdf:RDF>
  </metadata>
  <g
     transform="translate(0,-802.36216)"
     id="layer1">
    <path
       id="path4470"
       style="fill:#ffffff;fill-opacity:1;fill-rule:nonzero;stroke:none"
       d="m 210.0517,849.91885 -10.16127,2.35765 c -3.32951,0.82787 -6.90377,1.48657 -10.42764,2.17407 -3.51668,0.6479 -7.07295,1.45418 -10.55002,1.96171 l -10.47804,1.69175 c -3.49147,0.55071 -6.99735,0.95745 -10.49243,1.44338 -3.49867,0.48593 -6.99735,0.92866 -10.49962,1.28141 -7.00096,0.82067 -14.00911,1.46138 -21.01726,2.05169 -14.0199,1.11583 -28.043402,1.88612 -42.0705,2.29286 -7.01535,0.19437 -14.0307,0.32395 -21.049649,0.34195 -7.036947,0.0394 -13.994706,-0.0325 -21.150435,-0.24131 l 7.112536,-6.695 c 0.08279,-1.82853 -0.964656,-3.16033 -1.216618,-3.3439 -0.309554,-0.29156 -0.248363,-0.17623 -0.0288,-0.0648 0.464331,0.26636 1.410989,0.6479 2.426037,0.95386 2.062491,0.6371 4.499327,1.14103 6.95056,1.56576 4.945659,0.83868 10.136083,1.39299 15.340904,1.84653 10.431238,0.87827 21.02085,1.3282 31.617665,1.62335 21.19722,0.55792 42.54203,0.50753 63.76445,0.0685 l 10.21887,-0.21251 -4.93486,8.6315 c -1.01145,1.77094 -2.06249,2.57362 -2.86157,3.19992 -0.83868,0.61911 -1.57657,1.04745 -2.28566,1.42179 -1.40379,0.73069 -2.71039,1.27781 -3.981,1.74934 -2.54482,0.95386 -4.98166,1.65935 -7.42569,2.32525 -4.87367,1.31021 -9.68615,2.34325 -14.50583,3.30071 -9.62856,1.89331 -19.23552,3.43028 -28.85328,4.85207 -19.242718,2.80398 -38.456639,5.12563 -57.782147,7.13773 l 3.707445,-6.83177 c -0.637104,-1.04385 -0.698295,-0.81708 -0.622706,-0.81348 0.179973,0.097 0.478728,0.24476 0.849473,0.39234 0.755886,0.29515 1.727741,0.56511 2.699595,0.81348 1.990503,0.48232 4.132182,0.86387 6.295458,1.19502 4.34455,0.6515 8.811481,1.11583 13.285612,1.50457 8.966255,0.77389 18.0189,1.24902 27.07514,1.62696 18.11969,0.72349 36.32216,1.03304 54.46705,1.06904 l 8.52712,0.0144 -5.71954,6.07949 c -1.74574,1.85732 -3.55627,3.01275 -5.338,4.05299 -1.78534,1.00425 -3.57427,1.82493 -5.3632,2.58801 -3.58147,1.49018 -7.17733,2.6672 -10.78399,3.75784 -7.20972,2.15608 -14.46263,3.85862 -21.73354,5.39919 -14.55262,3.04155 -29.130439,5.43879 -43.848634,7.41846 l 1.994102,-4.56049 c 0.316753,0.49313 1.306604,1.19863 2.501625,1.68095 1.202221,0.50033 2.577212,0.89267 3.998999,1.20219 2.850773,0.61911 5.87792,0.94681 8.919465,1.16997 6.101083,0.4138 12.317353,0.36715 18.522823,0.15262 12.42174,-0.47167 24.90467,-1.60907 37.25442,-3.16044 l 5.96431,-0.74869 -3.9882,4.34452 c -1.14823,1.24916 -2.33605,2.0301 -3.51668,2.78253 -1.18062,0.71269 -2.37564,1.33526 -3.57426,1.91117 -2.39364,1.14463 -4.81608,2.10583 -7.24932,3.01289 -4.86647,1.81039 -9.77973,3.3547 -14.71099,4.80168 -9.87693,2.87957 -19.80783,5.3776 -29.835933,7.63432 l 0.982653,-2.58442 c 0.53272,0.64445 1.141029,1.31395 1.997701,1.82507 0.79908,0.55058 1.727739,1.00065 2.674399,1.41445 1.91851,0.81348 3.9882,1.40753 6.09029,1.90426 4.21856,0.97905 8.58471,1.53682 12.96525,1.93276 8.76469,0.75963 17.64456,0.89267 26.45604,0.60846 l 2.30006,-0.0749 -1.3174,1.74934 c -1.88612,2.49802 -4.36615,3.33655 -6.66261,4.3876 -2.34685,0.95025 -4.71529,1.73494 -7.08014,2.50177 -4.70809,1.54402 -9.49178,2.90836 -13.83633,5.03924 -2.04449,1.07984 -4.35894,2.46923 -4.75488,4.44894 -0.17998,0.90706 0.19077,2.11648 0.88186,2.76064 0.74149,0.75588 1.83213,1.27795 2.93356,1.72428 4.52093,1.68455 9.56377,2.61667 14.02351,5.04645 2.22806,1.18782 4.30855,2.72465 5.9787,4.6505 1.68095,1.91492 2.91916,4.19323 3.70025,6.59047 1.56936,4.82702 1.53337,9.95261 0.94666,14.87672 -1.26701,9.8985 -4.62891,19.3326 -8.35795,28.4968 3.55986,-9.2253 6.74179,-18.7244 7.81803,-28.5581 0.49672,-4.88441 0.42113,-9.93455 -1.18063,-14.55251 -0.79548,-2.29646 -2.0121,-4.43828 -3.63905,-6.22362 -1.61256,-1.79253 -3.61026,-3.21791 -5.76994,-4.31935 -4.34455,-2.26766 -9.22182,-3.06674 -14.0091,-4.74035 -1.18782,-0.46447 -2.41524,-0.98625 -3.45189,-1.9797 -1.09063,-1.08358 -1.54416,-2.50522 -1.34619,-4.02794 0.24836,-1.51177 1.23821,-2.6564 2.22806,-3.50588 1.01865,-0.86012 2.12728,-1.52617 3.24672,-2.13808 4.53532,-2.3215 9.3154,-3.76503 13.9839,-5.39544 2.33605,-0.80628 4.65771,-1.62696 6.89297,-2.58096 2.14888,-0.95372 4.53172,-2.08769 5.60796,-3.66771 l 0.97906,1.67015 c -8.93027,0.47859 -17.84253,0.53618 -26.78719,-0.0432 -4.47054,-0.3133 -8.94827,-0.78123 -13.40799,-1.71335 -2.22447,-0.47887 -4.45254,-1.06198 -6.644608,-1.93651 -1.094236,-0.44633 -2.188473,-0.94306 -3.235916,-1.62695 -1.06544,-0.61911 -2.055292,-1.54057 -2.922762,-2.60976 l -1.583763,-1.9581 2.566416,-0.62631 c 9.884123,-2.4007 19.746643,-5.06804 29.454383,-8.08065 4.84848,-1.51551 9.66816,-3.12807 14.35825,-4.9638 2.33965,-0.91772 4.65771,-1.88957 6.85698,-2.98755 2.15967,-1.0689 4.39494,-2.38284 5.62596,-3.72901 l 1.9725,3.59597 c -12.50453,1.81759 -25.00186,3.19633 -37.64317,3.92342 -6.32065,0.33835 -12.6629,0.51458 -19.087933,0.20445 -3.214319,-0.17566 -6.443036,-0.45354 -9.740143,-1.09798 -1.64855,-0.32741 -3.3151,-0.74869 -5.021245,-1.42165 -1.67375,-0.70204 -3.549069,-1.58376 -5.104036,-3.64639 l -2.879569,-3.819 4.87367,-0.74149 c 14.469832,-2.19567 28.964866,-4.83768 43.222326,-8.07719 7.12333,-1.63776 14.21067,-3.43389 21.08564,-5.62236 3.43389,-1.09784 6.83178,-2.28206 10.0317,-3.68225 1.59096,-0.71269 3.14233,-1.45778 4.55332,-2.28926 1.39299,-0.82428 2.6528,-1.76374 3.43388,-2.60961 l 2.80398,6.09749 c -18.28166,0.31315 -36.51653,0.35635 -54.81259,-0.0202 -9.146227,-0.20157 -18.299657,-0.50752 -27.496278,-1.11943 -4.603711,-0.31315 -9.214621,-0.6983 -13.890321,-1.3102 -2.343249,-0.30956 -4.697297,-0.6767 -7.144931,-1.22022 -1.238214,-0.29156 -2.476429,-0.59391 -3.851423,-1.09424 -0.694696,-0.25916 -1.439785,-0.57231 -2.256862,-1.01865 -0.874669,-0.6083 -1.929312,-1.02224 -3.120733,-3.08833 l -3.441085,-5.96071 7.14853,-0.87107 c 19.091542,-2.32885 38.226275,-4.98525 57.191833,-8.09159 9.48098,-1.56936 18.94036,-3.25751 28.24497,-5.25881 4.64691,-1.00425 9.26861,-2.08769 13.71035,-3.3691 2.21007,-0.6407 4.40574,-1.3246 6.37105,-2.10928 0.98985,-0.38155 1.90411,-0.80628 2.6348,-1.20222 0.35635,-0.19437 0.6587,-0.39234 0.78468,-0.49673 0.16918,-0.0898 0,-0.14398 -0.38874,0.58671 l 5.28401,8.41914 c -21.48158,0.84588 -42.86958,1.29581 -64.38716,1.13383 -10.758786,-0.10078 -21.528372,-0.35274 -32.398745,-1.06544 -5.445984,-0.37074 -10.899168,-0.84227 -16.49993,-1.68454 -2.814779,-0.43914 -5.636756,-0.93586 -8.699898,-1.81053 -1.540569,-0.45354 -3.127932,-0.96106 -5.028447,-1.94371 -0.953857,-0.51832 -2.026497,-1.13383 -3.286308,-2.36485 -0.633505,-0.6515 -1.313804,-1.43258 -1.907715,-2.6492 -0.586712,-1.16983 -0.975454,-2.72839 -0.917862,-4.24017 l 0.255561,-6.72379 6.856974,0.0288 c 6.74899,0.0288 13.706748,-0.0648 20.574521,-0.27355 6.889368,-0.18718 13.782337,-0.48593 20.664507,-0.84588 13.767936,-0.74149 27.510672,-1.83572 41.192222,-3.26831 6.83898,-0.74509 13.66716,-1.53697 20.46294,-2.50522 3.40509,-0.42834 6.79578,-0.93946 10.17568,-1.49738 3.37989,-0.55432 6.77778,-1.03304 10.14328,-1.65215 l 10.07849,-1.87892 c 3.39069,-0.58311 6.60501,-1.41099 9.91292,-2.09849 3.28631,-0.72349 6.54382,-1.38939 9.94531,-2.32525 l 10.10369,-2.60601 4.29415,17.47539 z" />
  </g>
</svg>
