<?xml version="1.0" encoding="UTF-8" standalone="no"?>
<svg
   xmlns:dc="http://purl.org/dc/elements/1.1/"
   xmlns:cc="http://creativecommons.org/ns#"
   xmlns:rdf="http://www.w3.org/1999/02/22-rdf-syntax-ns#"
   xmlns:svg="http://www.w3.org/2000/svg"
   xmlns="http://www.w3.org/2000/svg"
   version="1.1"
   id="svg4701"
   viewBox="0 0 250 250"
   height="250"
   width="250">
  <defs
     id="defs4703">
    <clipPath
       id="clipPath4375-7"
       clipPathUnits="userSpaceOnUse">
      <path
         id="path4377-8"
         d="m 0,595.28 841.89,0 L 841.89,0 0,0 0,595.28 Z" />
    </clipPath>
  </defs>
  <metadata
     id="metadata4706">
    <rdf:RDF>
      <cc:Work
         rdf:about="">
        <dc:format>image/svg+xml</dc:format>
        <dc:type
           rdf:resource="http://purl.org/dc/dcmitype/StillImage" />
        <dc:title></dc:title>
      </cc:Work>
    </rdf:RDF>
  </metadata>
  <g
     transform="translate(0,-802.36216)"
     id="layer1">
    <g
       transform="matrix(2.2050789,0,0,-2.2050789,129.13047,959.07002)"
       id="g4367">
      <path
         id="path4369"
         style="fill:#ffffff;fill-opacity:1;fill-rule:nonzero;stroke:none"
         d="M 0,0 11.277,14.981 4.36,-2.448 0,0 Z" />
    </g>
    <g
       id="g4371"
       transform="matrix(2.2050789,0,0,-2.2050789,-35.152085,1058.699)">
      <g
         clip-path="url(#clipPath4375-7)"
         id="g4373">
        <g
           transform="translate(71.6936,45.8857)"
           id="g4379">
          <path
             id="path4381"
             style="fill:#ffffff;fill-opacity:1;fill-rule:nonzero;stroke:none"
             d="M 0,0 C 0,0 0.622,-0.71 1.71,-1.953 2.767,-3.11 4.334,-4.7 6.504,-6.215 c 1.081,-0.759 2.324,-1.468 3.699,-2.086 1.373,-0.624 2.897,-1.12 4.526,-1.412 1.625,-0.297 3.355,-0.452 5.121,-0.323 0.443,0.006 0.886,0.049 1.33,0.114 0.444,0.06 0.893,0.098 1.339,0.175 0.884,0.194 1.791,0.323 2.667,0.605 l 1.326,0.377 1.301,0.471 c 0.877,0.287 1.708,0.693 2.551,1.056 1.667,0.768 3.267,1.64 4.769,2.57 0.77,0.436 1.476,0.947 2.185,1.422 0.711,0.473 1.401,0.945 2.041,1.45 0.651,0.494 1.283,0.973 1.895,1.437 0.59,0.493 1.161,0.969 1.709,1.427 1.114,0.896 2.058,1.806 2.922,2.585 0.871,0.773 1.591,1.488 2.181,2.08 1.19,1.178 1.869,1.851 1.869,1.851 0,0 -0.623,-0.726 -1.712,-1.998 C 47.682,4.945 47.019,4.172 46.212,3.327 45.41,2.477 44.536,1.484 43.49,0.492 c -0.514,-0.507 -1.05,-1.034 -1.605,-1.58 -0.58,-0.52 -1.18,-1.057 -1.797,-1.61 -0.609,-0.565 -1.27,-1.103 -1.955,-1.645 -0.683,-0.543 -1.364,-1.125 -2.117,-1.637 -1.465,-1.082 -3.046,-2.121 -4.728,-3.069 -0.852,-0.454 -1.693,-0.952 -2.601,-1.335 L 27.34,-11 25.945,-11.524 c -0.922,-0.378 -1.9,-0.608 -2.857,-0.897 -0.485,-0.126 -0.979,-0.211 -1.468,-0.318 -0.489,-0.111 -0.981,-0.199 -1.478,-0.249 -1.976,-0.305 -3.979,-0.3 -5.898,-0.108 -1.925,0.186 -3.768,0.621 -5.443,1.22 -1.678,0.592 -3.211,1.311 -4.548,2.093 -2.683,1.562 -4.641,3.253 -5.941,4.461 -1.218,1.18 -1.915,1.855 -1.915,1.855 L 0,0 Z" />
        </g>
        <g
           transform="translate(47.1208,49.7771)"
           id="g4383">
          <path
             id="path4385"
             style="fill:#ffffff;fill-opacity:1;fill-rule:nonzero;stroke:none"
             d="m 0,0 c 0,0 0.322,-0.361 0.886,-0.992 0.527,-0.595 1.351,-1.43 2.385,-2.36 0.524,-0.459 1.101,-0.95 1.745,-1.427 0.629,-0.5 1.341,-0.957 2.078,-1.438 0.751,-0.453 1.535,-0.923 2.375,-1.318 0.819,-0.451 1.714,-0.756 2.59,-1.139 0.905,-0.275 1.8,-0.643 2.724,-0.837 0.917,-0.224 1.827,-0.454 2.729,-0.558 0.451,-0.069 0.894,-0.136 1.327,-0.202 0.438,-0.031 0.867,-0.06 1.284,-0.089 0.838,-0.065 1.636,-0.115 2.371,-0.076 0.736,0.018 1.418,0.015 2.019,0.048 0.6,0.061 1.122,0.114 1.553,0.158 0.866,0.089 1.361,0.139 1.361,0.139 0,0 -0.481,-0.127 -1.322,-0.35 -0.423,-0.112 -0.937,-0.248 -1.527,-0.403 -0.595,-0.129 -1.275,-0.234 -2.018,-0.371 -0.742,-0.157 -1.556,-0.235 -2.424,-0.305 -0.435,-0.038 -0.882,-0.077 -1.338,-0.117 -0.459,-0.003 -0.928,-0.006 -1.405,-0.01 -0.961,-0.038 -1.947,0.048 -2.958,0.132 -1.016,0.054 -2.023,0.287 -3.054,0.435 -1.001,0.256 -2.037,0.442 -3.005,0.787 -0.991,0.289 -1.933,0.665 -2.848,1.037 -0.898,0.401 -1.778,0.79 -2.568,1.233 -0.806,0.422 -1.541,0.867 -2.214,1.291 -1.338,0.866 -2.398,1.648 -3.131,2.247 -0.693,0.566 -1.089,0.889 -1.089,0.889 L 0,0 Z" />
        </g>
        <g
           transform="translate(22.7782,49.5904)"
           id="g4387">
          <path
             id="path4389"
             style="fill:#ffffff;fill-opacity:1;fill-rule:nonzero;stroke:none"
             d="M 0,0 28.439,36.569 4.107,-2.852 0,0 Z" />
        </g>
        <g
           transform="translate(43.1875,47.187)"
           id="g4391">
          <path
             id="path4393"
             style="fill:#ffffff;fill-opacity:1;fill-rule:nonzero;stroke:none"
             d="M 0,0 27.607,37.746 4.188,-2.732 0,0 Z" />
        </g>
        <g
           transform="translate(67.6932,43.3903)"
           id="g4395">
          <path
             id="path4397"
             style="fill:#ffffff;fill-opacity:1;fill-rule:nonzero;stroke:none"
             d="M 0,0 26.922,40.06 4.289,-2.57 0,0 Z" />
        </g>
        <g
           transform="translate(29.9185,51.5196)"
           id="g4399">
          <path
             id="path4401"
             style="fill:#ffffff;fill-opacity:1;fill-rule:nonzero;stroke:none"
             d="M 0,0 16.037,18.711 4.107,-2.852 0,0 Z" />
        </g>
        <g
           transform="translate(49.0818,48.7419)"
           id="g4403">
          <path
             id="path4405"
             style="fill:#ffffff;fill-opacity:1;fill-rule:nonzero;stroke:none"
             d="M 0,0 11.681,14.369 4.27,-2.601 0,0 Z" />
        </g>
        <g
           transform="translate(26.6861,52.1521)"
           id="g4407">
          <path
             id="path4409"
             style="fill:#ffffff;fill-opacity:1;fill-rule:nonzero;stroke:none"
             d="M 0,0 C 0,0 0.082,-0.092 0.236,-0.263 0.385,-0.426 0.603,-0.664 0.881,-0.968 1.137,-1.249 1.47,-1.593 1.88,-1.987 2.273,-2.391 2.758,-2.804 3.269,-3.279 3.808,-3.717 4.37,-4.232 5.018,-4.701 5.648,-5.2 6.345,-5.677 7.075,-6.164 c 0.736,-0.475 1.514,-0.949 2.328,-1.383 0.411,-0.212 0.826,-0.425 1.243,-0.638 0.42,-0.209 0.858,-0.374 1.29,-0.565 0.859,-0.404 1.765,-0.653 2.649,-0.966 0.896,-0.246 1.792,-0.476 2.669,-0.648 0.883,-0.109 1.742,-0.313 2.566,-0.333 0.822,-0.024 1.612,-0.126 2.335,-0.079 0.729,0.036 1.397,0.07 1.989,0.099 0.591,0.057 1.099,0.161 1.525,0.219 0.851,0.133 1.337,0.208 1.337,0.208 0,0 -0.468,-0.151 -1.288,-0.417 -0.412,-0.125 -0.909,-0.312 -1.494,-0.464 -0.594,-0.126 -1.264,-0.268 -1.994,-0.423 -0.735,-0.166 -1.548,-0.192 -2.409,-0.303 -0.863,-0.114 -1.775,-0.049 -2.729,-0.081 -0.948,0.032 -1.932,0.122 -2.931,0.233 -0.984,0.177 -2.012,0.296 -2.997,0.577 -0.495,0.129 -1.002,0.235 -1.49,0.387 -0.487,0.159 -0.973,0.317 -1.454,0.473 -0.958,0.33 -1.885,0.708 -2.771,1.097 -0.88,0.402 -1.729,0.805 -2.506,1.239 -0.796,0.404 -1.5,0.863 -2.176,1.257 -0.648,0.43 -1.261,0.806 -1.773,1.185 -0.518,0.359 -0.973,0.699 -1.35,0.997 -0.352,0.28 -0.629,0.5 -0.818,0.65 -0.179,0.145 -0.274,0.223 -0.274,0.223 L 0,0 Z" />
        </g>
        <g
           transform="translate(71.1119,71.8564)"
           id="g4411">
          <path
             id="path4413"
             style="fill:#ffffff;fill-opacity:1;fill-rule:nonzero;stroke:none"
             d="M 0,0 0.096,0.664 C 0.225,1.549 1.046,2.162 1.93,2.033 L 2.507,1.95 C 2.705,1.921 2.842,1.737 2.813,1.539 L 2.717,0.875 C 2.589,-0.01 1.768,-0.623 0.883,-0.494 L 0.307,-0.411 C 0.109,-0.382 -0.029,-0.198 0,0" />
        </g>
        <g
           transform="translate(62.1887,63.2258)"
           id="g4415">
          <path
             id="path4417"
             style="fill:#ffffff;fill-opacity:1;fill-rule:nonzero;stroke:none"
             d="M 0,0 0.096,0.664 C 0.225,1.549 1.046,2.162 1.93,2.033 L 2.507,1.95 C 2.705,1.921 2.842,1.737 2.813,1.539 L 2.717,0.875 C 2.589,-0.01 1.768,-0.623 0.883,-0.494 L 0.307,-0.411 C 0.109,-0.382 -0.029,-0.198 0,0" />
        </g>
        <g
           transform="translate(72.0036,62.3416)"
           id="g4419">
          <path
             id="path4421"
             style="fill:#ffffff;fill-opacity:1;fill-rule:nonzero;stroke:none"
             d="M 0,0 0.096,0.664 C 0.225,1.549 1.046,2.162 1.93,2.033 L 2.507,1.95 C 2.705,1.921 2.842,1.737 2.813,1.539 L 2.717,0.875 C 2.589,-0.01 1.768,-0.623 0.883,-0.494 L 0.307,-0.411 C 0.109,-0.382 -0.029,-0.198 0,0" />
        </g>
        <g
           transform="translate(52.405,66.9649)"
           id="g4423">
          <path
             id="path4425"
             style="fill:#ffffff;fill-opacity:1;fill-rule:nonzero;stroke:none"
             d="M 0,0 0.096,0.664 C 0.225,1.549 1.046,2.162 1.93,2.033 L 2.507,1.95 C 2.705,1.921 2.842,1.737 2.813,1.539 L 2.717,0.875 C 2.589,-0.01 1.768,-0.623 0.883,-0.494 L 0.307,-0.411 C 0.109,-0.382 -0.029,-0.198 0,0" />
        </g>
        <g
           transform="translate(48.4138,73.074)"
           id="g4427">
          <path
             id="path4429"
             style="fill:#ffffff;fill-opacity:1;fill-rule:nonzero;stroke:none"
             d="M 0,0 0.096,0.664 C 0.225,1.549 1.046,2.162 1.93,2.033 L 2.507,1.95 C 2.705,1.921 2.842,1.737 2.813,1.539 L 2.717,0.875 C 2.589,-0.01 1.768,-0.623 0.883,-0.494 L 0.307,-0.411 C 0.109,-0.382 -0.029,-0.198 0,0" />
        </g>
        <g
           transform="translate(93.839,69.9213)"
           id="g4431">
          <path
             id="path4433"
             style="fill:#ffffff;fill-opacity:1;fill-rule:nonzero;stroke:none"
             d="M 0,0 0.096,0.664 C 0.225,1.549 1.046,2.162 1.93,2.033 L 2.507,1.95 C 2.705,1.921 2.842,1.737 2.813,1.539 L 2.717,0.875 C 2.589,-0.01 1.768,-0.623 0.883,-0.494 L 0.307,-0.411 C 0.109,-0.382 -0.029,-0.198 0,0" />
        </g>
        <g
           transform="translate(99.2538,61.1241)"
           id="g4435">
          <path
             id="path4437"
             style="fill:#ffffff;fill-opacity:1;fill-rule:nonzero;stroke:none"
             d="M 0,0 0.096,0.664 C 0.225,1.549 1.046,2.162 1.93,2.033 L 2.507,1.95 C 2.705,1.921 2.842,1.737 2.813,1.539 L 2.717,0.875 C 2.589,-0.01 1.768,-0.623 0.883,-0.494 L 0.307,-0.411 C 0.109,-0.382 -0.029,-0.198 0,0" />
        </g>
        <g
           transform="translate(88.7268,59.312)"
           id="g4439">
          <path
             id="path4441"
             style="fill:#ffffff;fill-opacity:1;fill-rule:nonzero;stroke:none"
             d="M 0,0 0.096,0.664 C 0.225,1.549 1.046,2.162 1.93,2.033 L 2.507,1.95 C 2.705,1.921 2.842,1.737 2.813,1.539 L 2.717,0.875 C 2.589,-0.01 1.768,-0.623 0.883,-0.494 L 0.307,-0.411 C 0.109,-0.382 -0.029,-0.198 0,0" />
        </g>
        <g
           transform="translate(95.2264,84.0527)"
           id="g4443">
          <path
             id="path4445"
             style="fill:#ffffff;fill-opacity:1;fill-rule:nonzero;stroke:none"
             d="M 0,0 11.759,-16.318 -2.296,-1.931 0,0 Z" />
        </g>
        <g
           transform="translate(71.7968,85.898)"
           id="g4447">
          <path
             id="path4449"
             style="fill:#ffffff;fill-opacity:1;fill-rule:nonzero;stroke:none"
             d="M 0,0 11.759,-16.318 -2.296,-1.931 0,0 Z" />
        </g>
        <g
           transform="translate(52.365,87.125)"
           id="g4451">
          <path
             id="path4453"
             style="fill:#ffffff;fill-opacity:1;fill-rule:nonzero;stroke:none"
             d="M 0,0 10.327,-14.614 -2.296,-1.931 0,0 Z" />
        </g>
      </g>
    </g>
  </g>
</svg>
