<?xml version="1.0" encoding="UTF-8" standalone="no"?>
<!-- Created with Inkscape (http://www.inkscape.org/) -->

<svg
   xmlns:dc="http://purl.org/dc/elements/1.1/"
   xmlns:cc="http://creativecommons.org/ns#"
   xmlns:rdf="http://www.w3.org/1999/02/22-rdf-syntax-ns#"
   xmlns:svg="http://www.w3.org/2000/svg"
   xmlns="http://www.w3.org/2000/svg"
   xmlns:sodipodi="http://sodipodi.sourceforge.net/DTD/sodipodi-0.dtd"
   xmlns:inkscape="http://www.inkscape.org/namespaces/inkscape"
   width="250"
   height="250"
   viewBox="0 0 250 250"
   id="svg3753"
   version="1.1"
   inkscape:version="0.91 r13725"
   sodipodi:docname="move.svg">
  <defs
     id="defs3755" />
  <sodipodi:namedview
     id="base"
     pagecolor="#ffffff"
     bordercolor="#666666"
     borderopacity="1.0"
     inkscape:pageopacity="0.0"
     inkscape:pageshadow="2"
     inkscape:zoom="0.35"
     inkscape:cx="90.714286"
     inkscape:cy="520"
     inkscape:document-units="px"
     inkscape:current-layer="layer1"
     showgrid="false"
     units="px"
     inkscape:window-width="1440"
     inkscape:window-height="840"
     inkscape:window-x="0"
     inkscape:window-y="29"
     inkscape:window-maximized="1" />
  <metadata
     id="metadata3758">
    <rdf:RDF>
      <cc:Work
         rdf:about="">
        <dc:format>image/svg+xml</dc:format>
        <dc:type
           rdf:resource="http://purl.org/dc/dcmitype/StillImage" />
        <dc:title></dc:title>
      </cc:Work>
    </rdf:RDF>
  </metadata>
  <g
     inkscape:label="Layer 1"
     inkscape:groupmode="layer"
     id="layer1"
     transform="translate(0,-802.36216)">
    <path
       d="m 56.368594,927.24805 94.457586,-1.77314"
       style="fill:none;stroke:#ffffff;stroke-width:6.87264204;stroke-linecap:butt;stroke-linejoin:miter;stroke-miterlimit:10;stroke-dasharray:none;stroke-opacity:1"
       id="path3609"
       inkscape:connector-curvature="0" />
    <path
       d="m 198.69341,923.78011 0,111.96229"
       style="fill:none;stroke:#ffffff;stroke-width:6.87264204;stroke-linecap:butt;stroke-linejoin:miter;stroke-miterlimit:10;stroke-dasharray:none;stroke-opacity:1"
       id="path3613"
       inkscape:connector-curvature="0" />
    <path
       d="m 198.74774,1032.2632 -137.301639,0.082"
       style="fill:none;stroke:#ffffff;stroke-width:6.87264204;stroke-linecap:butt;stroke-linejoin:miter;stroke-miterlimit:10;stroke-dasharray:none;stroke-opacity:1"
       id="path3617"
       inkscape:connector-curvature="0" />
    <path
       d="m 59.384309,959.28831 2.006811,76.45129"
       style="fill:none;stroke:#ffffff;stroke-width:6.87264204;stroke-linecap:butt;stroke-linejoin:miter;stroke-miterlimit:10;stroke-dasharray:none;stroke-opacity:1"
       id="path3621"
       inkscape:connector-curvature="0" />
    <path
       d="m 48.137918,843.75166 c 3.30574,2.10303 6.673335,4.4466 9.821005,6.64585 3.140797,2.30921 6.343448,4.53594 9.394901,6.94137 6.178506,4.70776 12.22643,9.57359 18.054431,14.70058 2.914,2.56349 5.882981,5.05139 8.666401,7.76608 2.797165,2.69408 5.683675,5.27132 8.398364,8.05474 l 8.0891,8.37775 7.69049,8.76949 c 2.61848,2.85902 4.90707,6.04105 7.285,9.11312 2.36419,3.09269 4.79023,6.12353 6.83828,9.4705 2.1099,3.28513 4.33664,6.47403 6.3297,9.82788 l 5.53248,10.33646 c 1.91059,3.39508 3.08582,7.20252 4.64591,10.76943 l 2.16488,5.43626 1.5326,5.69054 c 0.8522,3.82806 2.39168,7.44995 2.59786,11.41546 l 1.36078,11.6284 -5.23008,-0.64603 c 3.92428,-10.0202 8.0891,-19.8687 12.57006,-29.6141 2.24048,-4.86583 4.5978,-9.68355 7.10631,-14.4188 2.52913,-4.70776 5.20259,-9.41552 8.61142,-13.53911 -3.04458,4.39162 -5.28506,9.2437 -7.40184,14.12328 -2.08928,4.89332 -4.01362,9.85537 -5.83487,14.85865 -3.61501,10.00657 -6.92762,20.15059 -9.95845,30.31539 l -3.02397,10.14402 -2.19924,-10.7972 -2.19925,-10.78993 c -0.46046,-3.62876 -2.25422,-6.97573 -3.32636,-10.44642 l -1.84874,-5.15448 -2.46728,-4.92081 c -1.76626,-3.22327 -3.09268,-6.62523 -5.17509,-9.66981 l -5.9792,-9.22996 c -2.13052,-2.98272 -4.50158,-5.82112 -6.72832,-8.73513 -2.15801,-2.95523 -4.71463,-5.64243 -7.18878,-8.364 -2.49477,-2.71469 -4.85896,-5.50499 -7.59427,-8.0135 l -7.95165,-7.67674 -8.343386,-7.29187 c -2.776548,-2.41917 -5.752402,-4.64591 -8.611421,-6.96886 -2.838401,-2.35045 -5.876108,-4.48097 -8.838217,-6.68708 -5.937963,-4.39162 -12.068359,-8.52895 -18.2881,-12.49447 -3.078944,-2.0343 -6.26785,-3.86929 -9.394902,-5.79363 -3.230141,-1.86936 -6.233486,-3.60814 -9.477373,-5.31256 l 10.370817,-17.82076 z"
       style="fill:#ffffff;fill-opacity:1;fill-rule:nonzero;stroke:none"
       id="path3625"
       inkscape:connector-curvature="0" />
    <path
       d="m 102.56237,946.47567 c 0,0 1.08588,0.30239 2.99647,0.83846 0.94843,0.26776 2.10303,0.59105 3.42945,0.96217 1.2302,0.2958 2.9896,0.90719 4.90019,1.61507 1.86249,0.70788 3.93803,1.37453 5.94484,2.28859 1.93121,0.98279 3.97239,2.02056 6.08229,3.09269 2.02743,1.23707 4.05485,2.62535 6.08916,3.97239 1.93121,1.56696 3.88304,3.12705 5.69054,4.80397 1.69067,1.84874 3.53942,3.45694 4.94143,5.45001 1.52573,1.86248 2.8659,3.78682 3.99988,5.74553 1.26457,1.86248 2.08241,3.90366 3.02396,5.68367 0.73538,1.91076 1.5326,3.62177 2.00682,5.31959 2.16488,6.66646 2.19237,11.25024 2.19237,11.25024 0,0 -1.34704,-4.40509 -5.09263,-9.84822 -0.85908,-1.38827 -2.05492,-2.73531 -3.16829,-4.19231 -1.31267,-1.33329 -2.48789,-2.85919 -4.04798,-4.13062 -1.43639,-1.36766 -3.03084,-2.63223 -4.72838,-3.77996 -1.57384,-1.27831 -3.52567,-2.13052 -5.23008,-3.1889 -1.835,-0.90032 -3.73185,-1.65631 -5.53248,-2.42605 -1.89685,-0.55668 -3.75933,-1.10649 -5.55997,-1.64256 -1.84186,-0.33648 -3.62875,-0.65977 -5.31255,-0.96904 -1.66318,-0.22652 -3.18203,-0.21992 -4.5703,-0.34363 -1.34704,-0.10996 -2.58412,-0.21278 -4.08235,-0.1446 -1.37453,0.0165 -2.57724,0.0275 -3.56691,0.044 -1.97932,0.0275 -3.106429,0.0385 -3.106429,0.0385 l 2.700949,-20.43924 z"
       style="fill:#ffffff;fill-opacity:1;fill-rule:nonzero;stroke:none"
       id="path3629"
       inkscape:connector-curvature="0" />
  </g>
</svg>
