<?xml version="1.0" encoding="UTF-8" standalone="no"?>
<svg
   xmlns:dc="http://purl.org/dc/elements/1.1/"
   xmlns:cc="http://creativecommons.org/ns#"
   xmlns:rdf="http://www.w3.org/1999/02/22-rdf-syntax-ns#"
   xmlns:svg="http://www.w3.org/2000/svg"
   xmlns="http://www.w3.org/2000/svg"
   xmlns:sodipodi="http://sodipodi.sourceforge.net/DTD/sodipodi-0.dtd"
   xmlns:inkscape="http://www.inkscape.org/namespaces/inkscape"
   version="1.1"
   id="svg4737"
   viewBox="0 0 250 250"
   height="250"
   width="250"
   inkscape:version="0.91 r13725"
   sodipodi:docname="talk.svg">
  <sodipodi:namedview
     pagecolor="#ffffff"
     bordercolor="#666666"
     borderopacity="1"
     objecttolerance="10"
     gridtolerance="10"
     guidetolerance="10"
     inkscape:pageopacity="0"
     inkscape:pageshadow="2"
     inkscape:window-width="688"
     inkscape:window-height="480"
     id="namedview5589"
     showgrid="false"
     inkscape:zoom="0.944"
     inkscape:cx="125"
     inkscape:cy="125"
     inkscape:window-x="0"
     inkscape:window-y="29"
     inkscape:window-maximized="0"
     inkscape:current-layer="svg4737" />
  <defs
     id="defs4739" />
  <metadata
     id="metadata4742">
    <rdf:RDF>
      <cc:Work
         rdf:about="">
        <dc:format>image/svg+xml</dc:format>
        <dc:type
           rdf:resource="http://purl.org/dc/dcmitype/StillImage" />
        <dc:title />
      </cc:Work>
    </rdf:RDF>
  </metadata>
  <g
     transform="matrix(0.90179175,0,0,0.90179175,10.097454,-708.34768)"
     id="layer1">
    <path
       id="path4474"
       style="fill:#ffffff;fill-opacity:1;fill-rule:nonzero;stroke:none"
       d="m 54.303827,821.5111 c 0,0 0.232115,1.10255 0.665623,3.16768 0.225288,1.09914 0.436922,1.75452 0.706584,2.92533 0.184327,0.97966 0.77144,2.68297 1.222015,4.29412 1.037689,3.36566 2.481579,7.54373 4.372631,12.35328 1.87057,4.80955 4.205371,10.24035 6.91565,16.12855 10.89232,23.54598 28.62178,54.22949 50.61123,81.87161 5.44104,6.95662 11.18588,13.66746 17.01605,20.13595 5.89503,6.3968 11.81737,12.63318 17.90014,18.28927 6.00084,5.75507 12.10409,10.99472 18.0196,15.83499 5.94622,4.79932 11.76957,9.09682 17.28229,12.89262 5.55027,3.7241 10.72165,7.0692 15.47317,9.742 4.6696,2.8434 8.97055,4.8846 12.44203,6.745 3.50561,1.7749 6.35926,2.9662 8.26396,3.881 1.92178,0.8807 2.94581,1.3518 2.94581,1.3518 0,0 -1.07182,-0.3448 -3.07893,-0.9933 -2.00028,-0.6827 -4.99388,-1.5327 -8.70771,-2.8912 -3.67629,-1.4405 -8.25373,-2.9834 -13.27833,-5.2806 -5.11334,-2.1232 -10.72164,-4.871 -16.80441,-7.9807 -6.04181,-3.1813 -12.4864,-6.8474 -19.1358,-11.022 -6.61868,-4.21563 -13.51385,-8.84086 -20.36806,-14.01224 -6.94295,-5.06897 -13.7801,-10.73871 -20.64796,-16.62009 -6.803,-5.94964 -13.56846,-12.1826 -20.05402,-18.70571 C 93.00894,940.64394 80.85364,926.74095 70.162718,913.09057 59.444484,899.45042 50.245234,886.03214 42.848287,874.07483 c -3.676286,-5.99744 -6.929304,-11.61256 -9.666892,-16.74981 -2.754654,-5.127 -5.017772,-9.76588 -6.792766,-13.75279 -0.88067,-2.09586 -1.64187,-3.64556 -2.34504,-5.59123 -0.655383,-1.74427 -1.341487,-3.53292 -1.648697,-4.47845 -0.679277,-2.00028 -1.037689,-3.06869 -1.037689,-3.06869 l 32.946624,-8.92276 z"
       inkscape:connector-curvature="0" />
    <path
       id="path4478"
       style="fill:#ffffff;fill-opacity:1;fill-rule:nonzero;stroke:none"
       d="m 111.9427,866.25188 -35.291668,34.2335 -40.647368,-74.70337 47.914606,-11.0391 28.02443,51.50897 z"
       inkscape:connector-curvature="0" />
    <path
       id="path4482"
       style="fill:#ffffff;fill-opacity:1;fill-rule:nonzero;stroke:none"
       d="m 237.08694,982.42012 -12.79703,47.27628 -69.29986,-35.72858 32.32195,-37.98146 49.77494,26.43376 z"
       inkscape:connector-curvature="0" />
  </g>
</svg>
